<?xml version="1.0" encoding="UTF-8" standalone="no"?>
<!DOCTYPE svg PUBLIC "-//W3C//DTD SVG 1.1//EN"
 "http://www.w3.org/Graphics/SVG/1.1/DTD/svg11.dtd">
<!-- Generated by graphviz version 14.1.0 (0)
 -->
<!-- Title: classes_cyberBullyingDetection Pages: 1 -->
<svg width="1801pt" height="584pt"
 viewBox="0.00 0.00 1801.00 584.00" xmlns="http://www.w3.org/2000/svg" xmlns:xlink="http://www.w3.org/1999/xlink">
<g id="graph0" class="graph" transform="scale(1 1) rotate(0) translate(4 580)">
<title>classes_cyberBullyingDetection</title>
<polygon fill="white" stroke="none" points="-4,4 -4,-580 1797.45,-580 1797.45,4 -4,4"/>
<!-- ingestion_system.orchestrator.IngestionSystemOrchestrator -->
<g id="node1" class="node">
<title>ingestion_system.orchestrator.IngestionSystemOrchestrator</title>
<polygon fill="none" stroke="black" points="772.7,-403 772.7,-575.5 946.95,-575.5 946.95,-403 772.7,-403"/>
<text xml:space="preserve" text-anchor="start" x="780.7" y="-558.2" font-family="Times,serif" font-size="14.00">IngestionSystemOrchestrator</text>
<polyline fill="none" stroke="black" points="772.7,-551 946.95,-551"/>
<text xml:space="preserve" text-anchor="start" x="802.45" y="-533.7" font-family="Times,serif" font-size="14.00">buffer_controller</text>
<text xml:space="preserve" text-anchor="start" x="802.45" y="-517.2" font-family="Times,serif" font-size="14.00">current_phase : str</text>
<text xml:space="preserve" text-anchor="start" x="802.45" y="-500.7" font-family="Times,serif" font-size="14.00">current_sessions : int</text>
<text xml:space="preserve" text-anchor="start" x="802.45" y="-484.2" font-family="Times,serif" font-size="14.00">json_io</text>
<text xml:space="preserve" text-anchor="start" x="802.45" y="-467.7" font-family="Times,serif" font-size="14.00">parameters</text>
<text xml:space="preserve" text-anchor="start" x="802.45" y="-451.2" font-family="Times,serif" font-size="14.00">session_creator</text>
<text xml:space="preserve" text-anchor="start" x="802.45" y="-434.7" font-family="Times,serif" font-size="14.00">sufficiency_checker</text>
<polyline fill="none" stroke="black" points="772.7,-427.5 946.95,-427.5"/>
<text xml:space="preserve" text-anchor="start" x="814.45" y="-410.2" font-family="Times,serif" font-size="14.00">process_record()</text>
</g>
<!-- ingestion_system.json_handler.JsonHandler -->
<g id="node2" class="node">
<title>ingestion_system.json_handler.JsonHandler</title>
<polygon fill="none" stroke="black" points="1295.95,-29.25 1295.95,-111.25 1603.7,-111.25 1603.7,-29.25 1295.95,-29.25"/>
<text xml:space="preserve" text-anchor="start" x="1416.07" y="-93.95" font-family="Times,serif" font-size="14.00">JsonHandler</text>
<polyline fill="none" stroke="black" points="1295.95,-86.75 1603.7,-86.75"/>
<polyline fill="none" stroke="black" points="1295.95,-86.75 1603.7,-86.75"/>
<text xml:space="preserve" text-anchor="start" x="1303.95" y="-69.45" font-family="Times,serif" font-size="14.00">read_json_file(filepath)</text>
<text xml:space="preserve" text-anchor="start" x="1303.95" y="-52.95" font-family="Times,serif" font-size="14.00">save_base64_audio_to_file(output_folder: str): str</text>
<text xml:space="preserve" text-anchor="start" x="1303.95" y="-36.45" font-family="Times,serif" font-size="14.00">validate_json(json_data: dict, schema_path: str): bool</text>
</g>
<!-- ingestion_system.ingestion_configuration.Parameters -->
<g id="node3" class="node">
<title>ingestion_system.ingestion_configuration.Parameters</title>
<polygon fill="none" stroke="black" points="67.45,-33.5 67.45,-107 156.2,-107 156.2,-33.5 67.45,-33.5"/>
<text xml:space="preserve" text-anchor="start" x="81.45" y="-89.7" font-family="Times,serif" font-size="14.00">Parameters</text>
<polyline fill="none" stroke="black" points="67.45,-82.5 156.2,-82.5"/>
<text xml:space="preserve" text-anchor="start" x="75.45" y="-65.2" font-family="Times,serif" font-size="14.00">configuration</text>
<polyline fill="none" stroke="black" points="67.45,-58 156.2,-58"/>
<text xml:space="preserve" text-anchor="start" x="109.95" y="-40.7" font-family="Times,serif" font-size="14.00"> </text>
</g>
<!-- ingestion_system.ingestion_configuration.Parameters&#45;&gt;ingestion_system.orchestrator.IngestionSystemOrchestrator -->
<g id="edge1" class="edge">
<title>ingestion_system.ingestion_configuration.Parameters&#45;&gt;ingestion_system.orchestrator.IngestionSystemOrchestrator</title>
<path fill="none" stroke="black" d="M77.23,-107.4C58.03,-130.04 36.01,-160.94 25.82,-193 4.71,-259.5 -19.3,-296.78 25.82,-350 118.88,-459.75 558.62,-482.48 759.4,-487.11"/>
<polygon fill="black" stroke="black" points="759.38,-487.11 765.47,-483.24 771.38,-487.37 765.29,-491.24 759.38,-487.11"/>
<text xml:space="preserve" text-anchor="middle" x="55.82" y="-266.45" font-family="Times,serif" font-size="14.00" fill="green">parameters</text>
</g>
<!-- ingestion_system.raw_session_creator.RawSessionCreator -->
<g id="node5" class="node">
<title>ingestion_system.raw_session_creator.RawSessionCreator</title>
<polygon fill="none" stroke="black" points="94.45,-218.25 94.45,-324.75 633.2,-324.75 633.2,-218.25 94.45,-218.25"/>
<text xml:space="preserve" text-anchor="start" x="310.57" y="-307.45" font-family="Times,serif" font-size="14.00">RawSessionCreator</text>
<polyline fill="none" stroke="black" points="94.45,-300.25 633.2,-300.25"/>
<text xml:space="preserve" text-anchor="start" x="346.57" y="-282.95" font-family="Times,serif" font-size="14.00">config</text>
<polyline fill="none" stroke="black" points="94.45,-275.75 633.2,-275.75"/>
<text xml:space="preserve" text-anchor="start" x="102.45" y="-258.45" font-family="Times,serif" font-size="14.00">create_raw_session(records): RawSession</text>
<text xml:space="preserve" text-anchor="start" x="102.45" y="-241.95" font-family="Times,serif" font-size="14.00">mark_missing_samples(raw_session: RawSession, placeholder: Any): Tuple[bool, RawSession]</text>
<text xml:space="preserve" text-anchor="start" x="102.45" y="-225.45" font-family="Times,serif" font-size="14.00">validate_raw_session(missing_count): bool</text>
</g>
<!-- ingestion_system.ingestion_configuration.Parameters&#45;&gt;ingestion_system.raw_session_creator.RawSessionCreator -->
<g id="edge6" class="edge">
<title>ingestion_system.ingestion_configuration.Parameters&#45;&gt;ingestion_system.raw_session_creator.RawSessionCreator</title>
<path fill="none" stroke="black" d="M156.59,-106.64C192.73,-135.22 244.41,-176.08 287.12,-209.85"/>
<polygon fill="none" stroke="black" points="287.09,-209.82 294.27,-210.41 296.5,-217.27 289.31,-216.68 287.09,-209.82"/>
<text xml:space="preserve" text-anchor="middle" x="255.07" y="-161.7" font-family="Times,serif" font-size="14.00" fill="green">config</text>
</g>
<!-- ingestion_system.raw_session.RawSession -->
<g id="node4" class="node">
<title>ingestion_system.raw_session.RawSession</title>
<polygon fill="none" stroke="black" points="1622.2,-0.5 1622.2,-140 1793.45,-140 1793.45,-0.5 1622.2,-0.5"/>
<text xml:space="preserve" text-anchor="start" x="1674.82" y="-122.7" font-family="Times,serif" font-size="14.00">RawSession</text>
<polyline fill="none" stroke="black" points="1622.2,-115.5 1793.45,-115.5"/>
<text xml:space="preserve" text-anchor="start" x="1630.2" y="-98.2" font-family="Times,serif" font-size="14.00">audio : Optional[Any]</text>
<text xml:space="preserve" text-anchor="start" x="1630.2" y="-81.7" font-family="Times,serif" font-size="14.00">events : Optional[List[Any]]</text>
<text xml:space="preserve" text-anchor="start" x="1630.2" y="-65.2" font-family="Times,serif" font-size="14.00">label : Optional[str]</text>
<text xml:space="preserve" text-anchor="start" x="1630.2" y="-48.7" font-family="Times,serif" font-size="14.00">tweet : Optional[Any]</text>
<text xml:space="preserve" text-anchor="start" x="1630.2" y="-32.2" font-family="Times,serif" font-size="14.00">uuid : str</text>
<polyline fill="none" stroke="black" points="1622.2,-25 1793.45,-25"/>
<text xml:space="preserve" text-anchor="start" x="1672.95" y="-7.7" font-family="Times,serif" font-size="14.00">to_json(): str</text>
</g>
<!-- ingestion_system.raw_session_creator.RawSessionCreator&#45;&gt;ingestion_system.orchestrator.IngestionSystemOrchestrator -->
<g id="edge2" class="edge">
<title>ingestion_system.raw_session_creator.RawSessionCreator&#45;&gt;ingestion_system.orchestrator.IngestionSystemOrchestrator</title>
<path fill="none" stroke="black" d="M484.84,-325.14C569.4,-361.92 680.93,-410.44 760.33,-444.97"/>
<polygon fill="black" stroke="black" points="760.46,-445.03 767.56,-443.75 771.46,-449.81 764.37,-451.09 760.46,-445.03"/>
<text xml:space="preserve" text-anchor="middle" x="653.45" y="-371.2" font-family="Times,serif" font-size="14.00" fill="green">session_creator</text>
</g>
<!-- ingestion_system.record_and_session_channel.RecordAndSessionChannel -->
<g id="node6" class="node">
<title>ingestion_system.record_and_session_channel.RecordAndSessionChannel</title>
<polygon fill="none" stroke="black" points="651.57,-193.5 651.57,-349.5 1068.07,-349.5 1068.07,-193.5 651.57,-193.5"/>
<text xml:space="preserve" text-anchor="start" x="785.57" y="-332.2" font-family="Times,serif" font-size="14.00">RecordAndSessionChannel</text>
<polyline fill="none" stroke="black" points="651.57,-325 1068.07,-325"/>
<text xml:space="preserve" text-anchor="start" x="829.82" y="-307.7" font-family="Times,serif" font-size="14.00">app : Flask</text>
<text xml:space="preserve" text-anchor="start" x="829.82" y="-291.2" font-family="Times,serif" font-size="14.00">host : str</text>
<text xml:space="preserve" text-anchor="start" x="829.82" y="-274.7" font-family="Times,serif" font-size="14.00">port : int</text>
<polyline fill="none" stroke="black" points="651.57,-267.5 1068.07,-267.5"/>
<text xml:space="preserve" text-anchor="start" x="659.57" y="-250.2" font-family="Times,serif" font-size="14.00">get_record(timeout: Optional[float]): Optional[Tuple[bool, Any]]</text>
<text xml:space="preserve" text-anchor="start" x="659.57" y="-233.7" font-family="Times,serif" font-size="14.00">send_label(target_ip: str, target_port: int, label_data: Dict[str, Any]): bool</text>
<text xml:space="preserve" text-anchor="start" x="659.57" y="-217.2" font-family="Times,serif" font-size="14.00">send_raw_session(target_ip: str, target_port: int, session_data: Any): bool</text>
<text xml:space="preserve" text-anchor="start" x="659.57" y="-200.7" font-family="Times,serif" font-size="14.00">start_server()</text>
</g>
<!-- ingestion_system.record_and_session_channel.RecordAndSessionChannel&#45;&gt;ingestion_system.orchestrator.IngestionSystemOrchestrator -->
<g id="edge3" class="edge">
<title>ingestion_system.record_and_session_channel.RecordAndSessionChannel&#45;&gt;ingestion_system.orchestrator.IngestionSystemOrchestrator</title>
<path fill="none" stroke="black" d="M859.82,-349.78C859.82,-362.79 859.82,-376.45 859.82,-389.91"/>
<polygon fill="black" stroke="black" points="859.83,-389.82 863.82,-395.82 859.82,-401.82 855.82,-395.82 859.83,-389.82"/>
<text xml:space="preserve" text-anchor="middle" x="879.7" y="-371.2" font-family="Times,serif" font-size="14.00" fill="green">json_io</text>
</g>
<!-- ingestion_system.record_buffer.RecordBufferController -->
<g id="node7" class="node">
<title>ingestion_system.record_buffer.RecordBufferController</title>
<polygon fill="none" stroke="black" points="1083.57,-0.5 1083.57,-140 1278.07,-140 1278.07,-0.5 1083.57,-0.5"/>
<text xml:space="preserve" text-anchor="start" x="1115.95" y="-122.7" font-family="Times,serif" font-size="14.00">RecordBufferController</text>
<polyline fill="none" stroke="black" points="1083.57,-115.5 1278.07,-115.5"/>
<text xml:space="preserve" text-anchor="start" x="1163.95" y="-98.2" font-family="Times,serif" font-size="14.00">conn</text>
<text xml:space="preserve" text-anchor="start" x="1163.95" y="-81.7" font-family="Times,serif" font-size="14.00">cursor</text>
<polyline fill="none" stroke="black" points="1083.57,-74.5 1278.07,-74.5"/>
<text xml:space="preserve" text-anchor="start" x="1091.57" y="-57.2" font-family="Times,serif" font-size="14.00">close()</text>
<text xml:space="preserve" text-anchor="start" x="1091.57" y="-40.7" font-family="Times,serif" font-size="14.00">get_records(uuid: str): List[Any]</text>
<text xml:space="preserve" text-anchor="start" x="1091.57" y="-24.2" font-family="Times,serif" font-size="14.00">remove_records(uuid: str): None</text>
<text xml:space="preserve" text-anchor="start" x="1091.57" y="-7.7" font-family="Times,serif" font-size="14.00">store_record(record: dict): None</text>
</g>
<!-- ingestion_system.record_buffer.RecordBufferController&#45;&gt;ingestion_system.orchestrator.IngestionSystemOrchestrator -->
<g id="edge4" class="edge">
<title>ingestion_system.record_buffer.RecordBufferController&#45;&gt;ingestion_system.orchestrator.IngestionSystemOrchestrator</title>
<path fill="none" stroke="black" d="M1137.57,-140.4C1128.35,-157.17 1119.36,-175.36 1112.57,-193 1086.87,-259.79 1118.04,-291.5 1076.82,-350 1047.49,-391.65 1001.22,-423.62 958.94,-446.28"/>
<polygon fill="black" stroke="black" points="958.86,-446.32 955.39,-452.64 948.22,-451.86 951.69,-445.54 958.86,-446.32"/>
<text xml:space="preserve" text-anchor="middle" x="1158.7" y="-266.45" font-family="Times,serif" font-size="14.00" fill="green">buffer_controller</text>
</g>
<!-- ingestion_system.record_sufficiency_checker.RecordSufficiencyChecker -->
<g id="node8" class="node">
<title>ingestion_system.record_sufficiency_checker.RecordSufficiencyChecker</title>
<polygon fill="none" stroke="black" points="1213.95,-234.75 1213.95,-308.25 1539.7,-308.25 1539.7,-234.75 1213.95,-234.75"/>
<text xml:space="preserve" text-anchor="start" x="1303.7" y="-290.95" font-family="Times,serif" font-size="14.00">RecordSufficiencyChecker</text>
<polyline fill="none" stroke="black" points="1213.95,-283.75 1539.7,-283.75"/>
<text xml:space="preserve" text-anchor="start" x="1360.32" y="-266.45" font-family="Times,serif" font-size="14.00">buffer</text>
<polyline fill="none" stroke="black" points="1213.95,-259.25 1539.7,-259.25"/>
<text xml:space="preserve" text-anchor="start" x="1221.95" y="-241.95" font-family="Times,serif" font-size="14.00">are_records_sufficient(uuid: str, current_phase: str): bool</text>
</g>
<!-- ingestion_system.record_buffer.RecordBufferController&#45;&gt;ingestion_system.record_sufficiency_checker.RecordSufficiencyChecker -->
<g id="edge7" class="edge">
<title>ingestion_system.record_buffer.RecordBufferController&#45;&gt;ingestion_system.record_sufficiency_checker.RecordSufficiencyChecker</title>
<path fill="none" stroke="black" d="M1248.83,-140.38C1276.47,-168.48 1307.65,-200.17 1332.31,-225.24"/>
<polygon fill="none" stroke="black" points="1332.37,-225.31 1339.43,-226.78 1340.79,-233.86 1333.73,-232.39 1332.37,-225.31"/>
<text xml:space="preserve" text-anchor="middle" x="1295.32" y="-161.7" font-family="Times,serif" font-size="14.00" fill="green">buffer</text>
</g>
<!-- ingestion_system.record_sufficiency_checker.RecordSufficiencyChecker&#45;&gt;ingestion_system.orchestrator.IngestionSystemOrchestrator -->
<g id="edge5" class="edge">
<title>ingestion_system.record_sufficiency_checker.RecordSufficiencyChecker&#45;&gt;ingestion_system.orchestrator.IngestionSystemOrchestrator</title>
<path fill="none" stroke="black" d="M1294.98,-308.63C1265.08,-321.75 1230.96,-336.64 1199.82,-350 1119.32,-384.56 1027.21,-421.88 959.19,-449.02"/>
<polygon fill="black" stroke="black" points="959.19,-449.02 955.1,-454.96 948.04,-453.46 952.13,-447.52 959.19,-449.02"/>
<text xml:space="preserve" text-anchor="middle" x="1208.25" y="-371.2" font-family="Times,serif" font-size="14.00" fill="green">sufficiency_checker</text>
</g>
</g>
</svg>
