<?xml version="1.0" encoding="UTF-8" standalone="no"?>
<!DOCTYPE svg PUBLIC "-//W3C//DTD SVG 1.1//EN"
 "http://www.w3.org/Graphics/SVG/1.1/DTD/svg11.dtd">
<!-- Generated by graphviz version 14.1.0 (0)
 -->
<!-- Title: packages_cyberBullyingDetection Pages: 1 -->
<svg width="1123pt" height="260pt"
 viewBox="0.00 0.00 1123.00 260.00" xmlns="http://www.w3.org/2000/svg" xmlns:xlink="http://www.w3.org/1999/xlink">
<g id="graph0" class="graph" transform="scale(1 1) rotate(0) translate(4 256)">
<title>packages_cyberBullyingDetection</title>
<polygon fill="white" stroke="none" points="-4,4 -4,-256 1119.12,-256 1119.12,4 -4,4"/>
<!-- ingestion_system -->
<g id="node1" class="node">
<title>ingestion_system</title>
<polygon fill="none" stroke="black" points="475,-252 364.5,-252 364.5,-216 475,-216 475,-252"/>
<text xml:space="preserve" text-anchor="start" x="372.5" y="-228.95" font-family="Times,serif" font-size="14.00">ingestion_system</text>
</g>
<!-- ingestion_system.ingestion_configuration -->
<g id="node2" class="node">
<title>ingestion_system.ingestion_configuration</title>
<polygon fill="none" stroke="black" points="795.38,-180 552.12,-180 552.12,-144 795.38,-144 795.38,-180"/>
<text xml:space="preserve" text-anchor="start" x="560.12" y="-156.95" font-family="Times,serif" font-size="14.00">ingestion_system.ingestion_configuration</text>
</g>
<!-- ingestion_system.ingestion_configuration&#45;&gt;ingestion_system -->
<g id="edge1" class="edge">
<title>ingestion_system.ingestion_configuration&#45;&gt;ingestion_system</title>
<path fill="none" stroke="black" d="M610.31,-180.48C572.43,-190.92 524.4,-204.16 486.03,-214.73"/>
<polygon fill="black" stroke="black" points="476.65,-217.32 485.1,-210.32 480.3,-216.31 486.29,-214.66 486.29,-214.66 486.29,-214.66 480.3,-216.31 487.49,-219 476.65,-217.32"/>
</g>
<!-- ingestion_system.json_handler -->
<g id="node3" class="node">
<title>ingestion_system.json_handler</title>
<polygon fill="none" stroke="black" points="730.75,-252 546.75,-252 546.75,-216 730.75,-216 730.75,-252"/>
<text xml:space="preserve" text-anchor="start" x="554.75" y="-228.95" font-family="Times,serif" font-size="14.00">ingestion_system.json_handler</text>
</g>
<!-- ingestion_system.ingestion_configuration&#45;&gt;ingestion_system.json_handler -->
<g id="edge2" class="edge">
<title>ingestion_system.ingestion_configuration&#45;&gt;ingestion_system.json_handler</title>
<path fill="none" stroke="black" d="M665.1,-180.3C661.24,-188.02 656.61,-197.29 652.31,-205.89"/>
<polygon fill="black" stroke="black" points="647.85,-214.81 648.29,-203.85 649.54,-211.42 652.32,-205.86 652.32,-205.86 652.32,-205.86 649.54,-211.42 656.34,-207.87 647.85,-214.81"/>
</g>
<!-- ingestion_system.orchestrator -->
<g id="node4" class="node">
<title>ingestion_system.orchestrator</title>
<polygon fill="none" stroke="black" points="560.12,-36 381.38,-36 381.38,0 560.12,0 560.12,-36"/>
<text xml:space="preserve" text-anchor="start" x="389.38" y="-12.95" font-family="Times,serif" font-size="14.00">ingestion_system.orchestrator</text>
</g>
<!-- ingestion_system.orchestrator&#45;&gt;ingestion_system.ingestion_configuration -->
<g id="edge3" class="edge">
<title>ingestion_system.orchestrator&#45;&gt;ingestion_system.ingestion_configuration</title>
<path fill="none" stroke="black" d="M560.62,-31.35C608.42,-39.97 660.28,-53.29 674.75,-72 687.89,-88.98 686.47,-113.75 682.42,-132.85"/>
<polygon fill="black" stroke="black" points="680.05,-142.43 678.09,-131.64 680.96,-138.76 682.46,-132.72 682.46,-132.72 682.46,-132.72 680.96,-138.76 686.82,-133.81 680.05,-142.43"/>
</g>
<!-- ingestion_system.orchestrator&#45;&gt;ingestion_system.json_handler -->
<g id="edge4" class="edge">
<title>ingestion_system.orchestrator&#45;&gt;ingestion_system.json_handler</title>
<path fill="none" stroke="black" d="M408.31,-36.39C387.7,-44.55 365.94,-56.08 349.75,-72 313.96,-107.19 284.27,-141.74 316.75,-180 323.96,-188.5 443.96,-206.57 535.37,-219.24"/>
<polygon fill="black" stroke="black" points="545.16,-220.59 534.64,-223.68 541.42,-220.07 535.26,-219.22 535.26,-219.22 535.26,-219.22 541.42,-220.07 535.87,-214.77 545.16,-220.59"/>
</g>
<!-- ingestion_system.raw_session_creator -->
<g id="node6" class="node">
<title>ingestion_system.raw_session_creator</title>
<polygon fill="none" stroke="black" points="984,-108 759.5,-108 759.5,-72 984,-72 984,-108"/>
<text xml:space="preserve" text-anchor="start" x="767.5" y="-84.95" font-family="Times,serif" font-size="14.00">ingestion_system.raw_session_creator</text>
</g>
<!-- ingestion_system.orchestrator&#45;&gt;ingestion_system.raw_session_creator -->
<g id="edge5" class="edge">
<title>ingestion_system.orchestrator&#45;&gt;ingestion_system.raw_session_creator</title>
<path fill="none" stroke="black" d="M560.24,-34.62C619.49,-44.96 697.61,-58.6 760.8,-69.63"/>
<polygon fill="black" stroke="black" points="770.41,-71.31 759.78,-74.02 766.68,-70.66 760.56,-69.59 760.56,-69.59 760.56,-69.59 766.68,-70.66 761.33,-65.16 770.41,-71.31"/>
</g>
<!-- ingestion_system.record_and_session_channel -->
<g id="node7" class="node">
<title>ingestion_system.record_and_session_channel</title>
<polygon fill="none" stroke="black" points="269.5,-180 0,-180 0,-144 269.5,-144 269.5,-180"/>
<text xml:space="preserve" text-anchor="start" x="8" y="-156.95" font-family="Times,serif" font-size="14.00">ingestion_system.record_and_session_channel</text>
</g>
<!-- ingestion_system.orchestrator&#45;&gt;ingestion_system.record_and_session_channel -->
<g id="edge6" class="edge">
<title>ingestion_system.orchestrator&#45;&gt;ingestion_system.record_and_session_channel</title>
<path fill="none" stroke="black" d="M391.83,-36.47C357.87,-45.23 318.14,-57.16 283.75,-72 241.93,-90.04 197.56,-117.8 168.22,-137.52"/>
<polygon fill="black" stroke="black" points="160.25,-142.93 166,-133.59 163.38,-140.8 168.52,-137.31 168.52,-137.31 168.52,-137.31 163.38,-140.8 171.05,-141.03 160.25,-142.93"/>
</g>
<!-- ingestion_system.record_buffer -->
<g id="node8" class="node">
<title>ingestion_system.record_buffer</title>
<polygon fill="none" stroke="black" points="514,-180 325.5,-180 325.5,-144 514,-144 514,-180"/>
<text xml:space="preserve" text-anchor="start" x="333.5" y="-156.95" font-family="Times,serif" font-size="14.00">ingestion_system.record_buffer</text>
</g>
<!-- ingestion_system.orchestrator&#45;&gt;ingestion_system.record_buffer -->
<g id="edge7" class="edge">
<title>ingestion_system.orchestrator&#45;&gt;ingestion_system.record_buffer</title>
<path fill="none" stroke="black" d="M404.19,-36.45C386.77,-44.37 370,-55.74 359.75,-72 351.21,-85.53 353.17,-93.41 359.75,-108 364.69,-118.95 373.12,-128.54 382.14,-136.45"/>
<polygon fill="black" stroke="black" points="389.91,-142.74 379.31,-139.95 386.97,-140.36 382.14,-136.45 382.14,-136.45 382.14,-136.45 386.97,-140.36 384.97,-132.95 389.91,-142.74"/>
</g>
<!-- ingestion_system.record_sufficiency_checker -->
<g id="node9" class="node">
<title>ingestion_system.record_sufficiency_checker</title>
<polygon fill="none" stroke="black" points="665.88,-108 401.62,-108 401.62,-72 665.88,-72 665.88,-108"/>
<text xml:space="preserve" text-anchor="start" x="409.62" y="-84.95" font-family="Times,serif" font-size="14.00">ingestion_system.record_sufficiency_checker</text>
</g>
<!-- ingestion_system.orchestrator&#45;&gt;ingestion_system.record_sufficiency_checker -->
<g id="edge8" class="edge">
<title>ingestion_system.orchestrator&#45;&gt;ingestion_system.record_sufficiency_checker</title>
<path fill="none" stroke="black" d="M486.32,-36.3C493.72,-44.53 502.72,-54.52 510.87,-63.58"/>
<polygon fill="black" stroke="black" points="517.54,-70.99 507.51,-66.57 515.01,-68.18 510.85,-63.56 510.85,-63.56 510.85,-63.56 515.01,-68.18 514.2,-60.55 517.54,-70.99"/>
</g>
<!-- ingestion_system.raw_session -->
<g id="node5" class="node">
<title>ingestion_system.raw_session</title>
<polygon fill="none" stroke="black" points="1017.88,-180 837.62,-180 837.62,-144 1017.88,-144 1017.88,-180"/>
<text xml:space="preserve" text-anchor="start" x="845.62" y="-156.95" font-family="Times,serif" font-size="14.00">ingestion_system.raw_session</text>
</g>
<!-- ingestion_system.raw_session_creator&#45;&gt;ingestion_system.ingestion_configuration -->
<g id="edge9" class="edge">
<title>ingestion_system.raw_session_creator&#45;&gt;ingestion_system.ingestion_configuration</title>
<path fill="none" stroke="black" d="M822.3,-108.48C795.26,-118.04 761.59,-129.95 733.14,-140"/>
<polygon fill="black" stroke="black" points="724.06,-143.21 731.99,-135.64 727.63,-141.95 733.49,-139.88 733.49,-139.88 733.49,-139.88 727.63,-141.95 734.99,-144.12 724.06,-143.21"/>
</g>
<!-- ingestion_system.raw_session_creator&#45;&gt;ingestion_system.raw_session -->
<g id="edge10" class="edge">
<title>ingestion_system.raw_session_creator&#45;&gt;ingestion_system.raw_session</title>
<path fill="none" stroke="black" d="M885.59,-108.3C892.1,-116.44 900,-126.31 907.19,-135.3"/>
<polygon fill="black" stroke="black" points="913.31,-142.94 903.54,-137.95 910.94,-139.99 907.06,-135.14 907.06,-135.14 907.06,-135.14 910.94,-139.99 910.57,-132.32 913.31,-142.94"/>
</g>
<!-- ingestion_system.record_and_session_channel&#45;&gt;ingestion_system -->
<g id="edge11" class="edge">
<title>ingestion_system.record_and_session_channel&#45;&gt;ingestion_system</title>
<path fill="none" stroke="black" d="M205.93,-180.48C251.17,-191.59 309.33,-205.88 353.56,-216.74"/>
<polygon fill="black" stroke="black" points="363.03,-219.07 352.24,-221.05 359.35,-218.17 353.31,-216.68 353.31,-216.68 353.31,-216.68 359.35,-218.17 354.39,-212.31 363.03,-219.07"/>
</g>
<!-- ingestion_system.record_and_session_channel&#45;&gt;ingestion_system.json_handler -->
<g id="edge12" class="edge">
<title>ingestion_system.record_and_session_channel&#45;&gt;ingestion_system.json_handler</title>
<path fill="none" stroke="black" d="M260.63,-180.48C345.42,-192.26 455.88,-207.6 535.5,-218.66"/>
<polygon fill="black" stroke="black" points="545.31,-220.02 534.79,-223.1 541.57,-219.5 535.41,-218.65 535.41,-218.65 535.41,-218.65 541.57,-219.5 536.03,-214.19 545.31,-220.02"/>
</g>
<!-- ingestion_system.record_buffer&#45;&gt;ingestion_system -->
<g id="edge13" class="edge">
<title>ingestion_system.record_buffer&#45;&gt;ingestion_system</title>
<path fill="none" stroke="black" d="M419.75,-180.3C419.75,-187.68 419.75,-196.48 419.75,-204.75"/>
<polygon fill="black" stroke="black" points="419.75,-214.68 415.25,-204.68 419.75,-210.9 419.75,-204.68 419.75,-204.68 419.75,-204.68 419.75,-210.9 424.25,-204.68 419.75,-214.68"/>
</g>
<!-- ingestion_system.record_sufficiency_checker&#45;&gt;ingestion_system.ingestion_configuration -->
<g id="edge14" class="edge">
<title>ingestion_system.record_sufficiency_checker&#45;&gt;ingestion_system.ingestion_configuration</title>
<path fill="none" stroke="black" d="M568.72,-108.48C587.06,-117.66 609.73,-128.99 629.31,-138.78"/>
<polygon fill="black" stroke="black" points="638.14,-143.19 627.18,-142.75 634.76,-141.5 629.19,-138.72 629.19,-138.72 629.19,-138.72 634.76,-141.5 631.21,-134.7 638.14,-143.19"/>
</g>
<!-- ingestion_system.record_sufficiency_checker&#45;&gt;ingestion_system.record_buffer -->
<g id="edge15" class="edge">
<title>ingestion_system.record_sufficiency_checker&#45;&gt;ingestion_system.record_buffer</title>
<path fill="none" stroke="black" d="M505.28,-108.48C490.75,-117.4 472.89,-128.37 457.26,-137.97"/>
<polygon fill="black" stroke="black" points="448.9,-143.1 455.07,-134.03 452.12,-141.12 457.42,-137.87 457.42,-137.87 457.42,-137.87 452.12,-141.12 459.77,-141.7 448.9,-143.1"/>
</g>
<!-- ingestion_system.unit_test -->
<g id="node10" class="node">
<title>ingestion_system.unit_test</title>
<polygon fill="none" stroke="black" points="1115.12,-36 954.38,-36 954.38,0 1115.12,0 1115.12,-36"/>
<text xml:space="preserve" text-anchor="start" x="962.38" y="-12.95" font-family="Times,serif" font-size="14.00">ingestion_system.unit_test</text>
</g>
<!-- ingestion_system.unit_test.test_ingestion_system -->
<g id="node11" class="node">
<title>ingestion_system.unit_test.test_ingestion_system</title>
<polygon fill="none" stroke="black" points="936,-36 651.5,-36 651.5,0 936,0 936,-36"/>
<text xml:space="preserve" text-anchor="start" x="659.5" y="-12.95" font-family="Times,serif" font-size="14.00">ingestion_system.unit_test.test_ingestion_system</text>
</g>
<!-- ingestion_system.unit_test.test_ingestion_system&#45;&gt;ingestion_system.ingestion_configuration -->
<g id="edge16" class="edge">
<title>ingestion_system.unit_test.test_ingestion_system&#45;&gt;ingestion_system.ingestion_configuration</title>
<path fill="none" stroke="black" d="M779.04,-36.41C758.05,-61.24 719.39,-106.99 695.21,-135.6"/>
<polygon fill="black" stroke="black" points="689,-142.96 692.01,-132.42 691.44,-140.07 695.45,-135.32 695.45,-135.32 695.45,-135.32 691.44,-140.07 698.89,-138.23 689,-142.96"/>
</g>
<!-- ingestion_system.unit_test.test_ingestion_system&#45;&gt;ingestion_system.json_handler -->
<g id="edge17" class="edge">
<title>ingestion_system.unit_test.test_ingestion_system&#45;&gt;ingestion_system.json_handler</title>
<path fill="none" stroke="black" d="M910.38,-36.45C953.2,-45.12 994.87,-56.99 1009.75,-72 1043.96,-106.51 1058.7,-143.39 1026.75,-180 990.47,-221.58 844.18,-231.74 741.99,-233.6"/>
<polygon fill="black" stroke="black" points="732.22,-233.76 742.15,-229.1 736,-233.7 742.22,-233.6 742.22,-233.6 742.22,-233.6 736,-233.7 742.29,-238.1 732.22,-233.76"/>
</g>
<!-- ingestion_system.unit_test.test_ingestion_system&#45;&gt;ingestion_system.raw_session -->
<g id="edge18" class="edge">
<title>ingestion_system.unit_test.test_ingestion_system&#45;&gt;ingestion_system.raw_session</title>
<path fill="none" stroke="black" d="M905.4,-36.49C944.25,-45.03 981.07,-56.8 992.75,-72 1002.5,-84.69 999.61,-93.55 992.75,-108 987.39,-119.28 978.33,-128.95 968.65,-136.82"/>
<polygon fill="black" stroke="black" points="960.65,-142.81 965.96,-133.22 963.67,-140.54 968.65,-136.82 968.65,-136.82 968.65,-136.82 963.67,-140.54 971.35,-140.42 960.65,-142.81"/>
</g>
<!-- ingestion_system.unit_test.test_ingestion_system&#45;&gt;ingestion_system.raw_session_creator -->
<g id="edge19" class="edge">
<title>ingestion_system.unit_test.test_ingestion_system&#45;&gt;ingestion_system.raw_session_creator</title>
<path fill="none" stroke="black" d="M813.03,-36.3C822.41,-44.72 833.84,-54.98 844.13,-64.21"/>
<polygon fill="black" stroke="black" points="851.51,-70.84 841.07,-67.51 848.7,-68.31 844.07,-64.16 844.07,-64.16 844.07,-64.16 848.7,-68.31 847.08,-60.81 851.51,-70.84"/>
</g>
<!-- ingestion_system.unit_test.test_ingestion_system&#45;&gt;ingestion_system.record_buffer -->
<g id="edge20" class="edge">
<title>ingestion_system.unit_test.test_ingestion_system&#45;&gt;ingestion_system.record_buffer</title>
<path fill="none" stroke="black" d="M651.19,-28.73C543.01,-37.6 409.99,-52.33 392.75,-72 377.54,-89.35 387.72,-115.05 399.68,-134.38"/>
<polygon fill="black" stroke="black" points="405.11,-142.55 395.83,-136.71 403.02,-139.4 399.57,-134.22 399.57,-134.22 399.57,-134.22 403.02,-139.4 403.32,-131.73 405.11,-142.55"/>
</g>
<!-- ingestion_system.unit_test.test_ingestion_system&#45;&gt;ingestion_system.record_sufficiency_checker -->
<g id="edge21" class="edge">
<title>ingestion_system.unit_test.test_ingestion_system&#45;&gt;ingestion_system.record_sufficiency_checker</title>
<path fill="none" stroke="black" d="M728.81,-36.48C692.38,-46.29 646.76,-58.57 608.8,-68.79"/>
<polygon fill="black" stroke="black" points="599.49,-71.3 607.97,-64.36 603.14,-70.32 609.14,-68.7 609.14,-68.7 609.14,-68.7 603.14,-70.32 610.31,-73.05 599.49,-71.3"/>
</g>
</g>
</svg>
