<?xml version="1.0" encoding="UTF-8" standalone="no"?>
<!DOCTYPE svg PUBLIC "-//W3C//DTD SVG 1.1//EN"
 "http://www.w3.org/Graphics/SVG/1.1/DTD/svg11.dtd">
<!-- Generated by graphviz version 14.1.0 (0)
 -->
<!-- Title: packages_cyberBullyingDetection Pages: 1 -->
<svg width="1477pt" height="332pt"
 viewBox="0.00 0.00 1477.00 332.00" xmlns="http://www.w3.org/2000/svg" xmlns:xlink="http://www.w3.org/1999/xlink">
<g id="graph0" class="graph" transform="scale(1 1) rotate(0) translate(4 328)">
<title>packages_cyberBullyingDetection</title>
<polygon fill="white" stroke="none" points="-4,4 -4,-328 1473.49,-328 1473.49,4 -4,4"/>
<!-- segregation_system -->
<g id="node1" class="node">
<title>segregation_system</title>
<polygon fill="none" stroke="black" points="755.11,-36 631.86,-36 631.86,0 755.11,0 755.11,-36"/>
<text xml:space="preserve" text-anchor="start" x="639.86" y="-12.95" font-family="Times,serif" font-size="14.00">segregation_system</text>
</g>
<!-- segregation_system.learning_set -->
<g id="node2" class="node">
<title>segregation_system.learning_set</title>
<polygon fill="none" stroke="black" points="540.99,-252 347.99,-252 347.99,-216 540.99,-216 540.99,-252"/>
<text xml:space="preserve" text-anchor="start" x="355.99" y="-228.95" font-family="Times,serif" font-size="14.00">segregation_system.learning_set</text>
</g>
<!-- segregation_system.prepared_session -->
<g id="node4" class="node">
<title>segregation_system.prepared_session</title>
<polygon fill="none" stroke="black" points="436.49,-324 216.49,-324 216.49,-288 436.49,-288 436.49,-324"/>
<text xml:space="preserve" text-anchor="start" x="224.49" y="-300.95" font-family="Times,serif" font-size="14.00">segregation_system.prepared_session</text>
</g>
<!-- segregation_system.learning_set&#45;&gt;segregation_system.prepared_session -->
<g id="edge1" class="edge">
<title>segregation_system.learning_set&#45;&gt;segregation_system.prepared_session</title>
<path fill="none" stroke="black" d="M415.02,-252.48C399.84,-261.49 381.14,-272.58 364.85,-282.24"/>
<polygon fill="black" stroke="black" points="356.63,-287.12 362.94,-278.15 359.88,-285.19 365.23,-282.02 365.23,-282.02 365.23,-282.02 359.88,-285.19 367.53,-285.89 356.63,-287.12"/>
</g>
<!-- segregation_system.learning_set_splitter -->
<g id="node3" class="node">
<title>segregation_system.learning_set_splitter</title>
<polygon fill="none" stroke="black" points="563.11,-180 325.86,-180 325.86,-144 563.11,-144 563.11,-180"/>
<text xml:space="preserve" text-anchor="start" x="333.86" y="-156.95" font-family="Times,serif" font-size="14.00">segregation_system.learning_set_splitter</text>
</g>
<!-- segregation_system.learning_set_splitter&#45;&gt;segregation_system.learning_set -->
<g id="edge2" class="edge">
<title>segregation_system.learning_set_splitter&#45;&gt;segregation_system.learning_set</title>
<path fill="none" stroke="black" d="M444.49,-180.3C444.49,-187.68 444.49,-196.48 444.49,-204.75"/>
<polygon fill="black" stroke="black" points="444.49,-214.68 439.99,-204.68 444.49,-210.9 444.49,-204.68 444.49,-204.68 444.49,-204.68 444.49,-210.9 448.99,-204.68 444.49,-214.68"/>
</g>
<!-- segregation_system.learning_set_splitter&#45;&gt;segregation_system.prepared_session -->
<g id="edge3" class="edge">
<title>segregation_system.learning_set_splitter&#45;&gt;segregation_system.prepared_session</title>
<path fill="none" stroke="black" d="M506.73,-180.43C523.87,-188.4 540.48,-199.81 550.49,-216 558.9,-229.61 560.41,-239.45 550.49,-252 536.74,-269.37 492.9,-281.64 447.59,-289.96"/>
<polygon fill="black" stroke="black" points="437.89,-291.68 446.95,-285.51 441.61,-291.02 447.73,-289.94 447.73,-289.94 447.73,-289.94 441.61,-291.02 448.52,-294.37 437.89,-291.68"/>
</g>
<!-- segregation_system.segregation_configuration -->
<g id="node5" class="node">
<title>segregation_system.segregation_configuration</title>
<polygon fill="none" stroke="black" points="968.86,-252 700.11,-252 700.11,-216 968.86,-216 968.86,-252"/>
<text xml:space="preserve" text-anchor="start" x="708.11" y="-228.95" font-family="Times,serif" font-size="14.00">segregation_system.segregation_configuration</text>
</g>
<!-- segregation_system.learning_set_splitter&#45;&gt;segregation_system.segregation_configuration -->
<g id="edge4" class="edge">
<title>segregation_system.learning_set_splitter&#45;&gt;segregation_system.segregation_configuration</title>
<path fill="none" stroke="black" d="M541.89,-180.48C597.96,-190.55 668.52,-203.21 726.3,-213.58"/>
<polygon fill="black" stroke="black" points="736.11,-215.34 725.47,-218 732.39,-214.67 726.27,-213.58 726.27,-213.58 726.27,-213.58 732.39,-214.67 727.06,-209.15 736.11,-215.34"/>
</g>
<!-- segregation_system.segregation_json_handler -->
<g id="node7" class="node">
<title>segregation_system.segregation_json_handler</title>
<polygon fill="none" stroke="black" points="1220.36,-324 954.61,-324 954.61,-288 1220.36,-288 1220.36,-324"/>
<text xml:space="preserve" text-anchor="start" x="962.61" y="-300.95" font-family="Times,serif" font-size="14.00">segregation_system.segregation_json_handler</text>
</g>
<!-- segregation_system.segregation_configuration&#45;&gt;segregation_system.segregation_json_handler -->
<g id="edge5" class="edge">
<title>segregation_system.segregation_configuration&#45;&gt;segregation_system.segregation_json_handler</title>
<path fill="none" stroke="black" d="M897.68,-252.48C932.98,-262.25 977.14,-274.47 1013.98,-284.66"/>
<polygon fill="black" stroke="black" points="1023.49,-287.29 1012.65,-288.96 1019.85,-286.28 1013.85,-284.63 1013.85,-284.63 1013.85,-284.63 1019.85,-286.28 1015.05,-280.29 1023.49,-287.29"/>
</g>
<!-- segregation_system.segregation_database -->
<g id="node6" class="node">
<title>segregation_system.segregation_database</title>
<polygon fill="none" stroke="black" points="329.74,-252 87.24,-252 87.24,-216 329.74,-216 329.74,-252"/>
<text xml:space="preserve" text-anchor="start" x="95.24" y="-228.95" font-family="Times,serif" font-size="14.00">segregation_system.segregation_database</text>
</g>
<!-- segregation_system.segregation_database&#45;&gt;segregation_system.prepared_session -->
<g id="edge6" class="edge">
<title>segregation_system.segregation_database&#45;&gt;segregation_system.prepared_session</title>
<path fill="none" stroke="black" d="M237.96,-252.48C253.14,-261.49 271.83,-272.58 288.12,-282.24"/>
<polygon fill="black" stroke="black" points="296.34,-287.12 285.45,-285.89 293.09,-285.19 287.74,-282.02 287.74,-282.02 287.74,-282.02 293.09,-285.19 290.04,-278.15 296.34,-287.12"/>
</g>
<!-- segregation_system.segregation_orchestrator -->
<g id="node8" class="node">
<title>segregation_system.segregation_orchestrator</title>
<polygon fill="none" stroke="black" points="817.74,-108 557.24,-108 557.24,-72 817.74,-72 817.74,-108"/>
<text xml:space="preserve" text-anchor="start" x="565.24" y="-84.95" font-family="Times,serif" font-size="14.00">segregation_system.segregation_orchestrator</text>
</g>
<!-- segregation_system.segregation_orchestrator&#45;&gt;segregation_system.learning_set_splitter -->
<g id="edge7" class="edge">
<title>segregation_system.segregation_orchestrator&#45;&gt;segregation_system.learning_set_splitter</title>
<path fill="none" stroke="black" d="M626.79,-108.48C593.03,-118.21 550.84,-130.36 515.54,-140.53"/>
<polygon fill="black" stroke="black" points="506,-143.28 514.36,-136.19 509.63,-142.23 515.61,-140.51 515.61,-140.51 515.61,-140.51 509.63,-142.23 516.85,-144.84 506,-143.28"/>
</g>
<!-- segregation_system.segregation_orchestrator&#45;&gt;segregation_system.prepared_session -->
<g id="edge8" class="edge">
<title>segregation_system.segregation_orchestrator&#45;&gt;segregation_system.prepared_session</title>
<path fill="none" stroke="black" d="M679.78,-108.3C663.92,-141.77 624.3,-215.31 567.49,-252 532.13,-274.83 488.42,-287.94 447.97,-295.44"/>
<polygon fill="black" stroke="black" points="438.14,-297.15 447.22,-291 441.86,-296.5 447.99,-295.43 447.99,-295.43 447.99,-295.43 441.86,-296.5 448.76,-299.87 438.14,-297.15"/>
</g>
<!-- segregation_system.segregation_orchestrator&#45;&gt;segregation_system.segregation_configuration -->
<g id="edge9" class="edge">
<title>segregation_system.segregation_orchestrator&#45;&gt;segregation_system.segregation_configuration</title>
<path fill="none" stroke="black" d="M681.73,-108.49C676.52,-127.83 671.72,-159.03 686.49,-180 695.96,-193.45 709.18,-203.51 723.86,-211.03"/>
<polygon fill="black" stroke="black" points="732.58,-215.09 721.62,-214.95 729.16,-213.49 723.52,-210.87 723.52,-210.87 723.52,-210.87 729.16,-213.49 725.42,-206.79 732.58,-215.09"/>
</g>
<!-- segregation_system.segregation_orchestrator&#45;&gt;segregation_system.segregation_database -->
<g id="edge10" class="edge">
<title>segregation_system.segregation_orchestrator&#45;&gt;segregation_system.segregation_database</title>
<path fill="none" stroke="black" d="M556.77,-107.77C454.42,-121.21 327.54,-138.66 316.49,-144 295.54,-154.12 296.23,-164.96 278.49,-180 266.72,-189.98 253.32,-200.35 241.41,-209.24"/>
<polygon fill="black" stroke="black" points="233.63,-215 238.99,-205.44 236.67,-212.75 241.67,-209.05 241.67,-209.05 241.67,-209.05 236.67,-212.75 244.34,-212.67 233.63,-215"/>
</g>
<!-- segregation_system.segregation_orchestrator&#45;&gt;segregation_system.segregation_json_handler -->
<g id="edge11" class="edge">
<title>segregation_system.segregation_orchestrator&#45;&gt;segregation_system.segregation_json_handler</title>
<path fill="none" stroke="black" d="M818.19,-92.61C914.43,-96.75 1034.26,-109.05 1068.49,-144 1102.79,-179.02 1099.21,-240.9 1093.42,-276.89"/>
<polygon fill="black" stroke="black" points="1091.72,-286.4 1089.05,-275.76 1092.39,-282.68 1093.48,-276.55 1093.48,-276.55 1093.48,-276.55 1092.39,-282.68 1097.91,-277.35 1091.72,-286.4"/>
</g>
<!-- segregation_system.session_receiver_and_configuration_sender -->
<g id="node9" class="node">
<title>segregation_system.session_receiver_and_configuration_sender</title>
<polygon fill="none" stroke="black" points="1059.49,-180 695.49,-180 695.49,-144 1059.49,-144 1059.49,-180"/>
<text xml:space="preserve" text-anchor="start" x="703.49" y="-156.95" font-family="Times,serif" font-size="14.00">segregation_system.session_receiver_and_configuration_sender</text>
</g>
<!-- segregation_system.segregation_orchestrator&#45;&gt;segregation_system.session_receiver_and_configuration_sender -->
<g id="edge12" class="edge">
<title>segregation_system.segregation_orchestrator&#45;&gt;segregation_system.session_receiver_and_configuration_sender</title>
<path fill="none" stroke="black" d="M734.94,-108.48C760.77,-118 792.92,-129.84 820.14,-139.87"/>
<polygon fill="black" stroke="black" points="829.17,-143.2 818.23,-143.96 825.62,-141.89 819.78,-139.74 819.78,-139.74 819.78,-139.74 825.62,-141.89 821.34,-135.52 829.17,-143.2"/>
</g>
<!-- segregation_system.session_receiver_and_configuration_sender&#45;&gt;segregation_system.segregation_configuration -->
<g id="edge13" class="edge">
<title>segregation_system.session_receiver_and_configuration_sender&#45;&gt;segregation_system.segregation_configuration</title>
<path fill="none" stroke="black" d="M866.86,-180.3C862.02,-188.19 856.17,-197.7 850.79,-206.45"/>
<polygon fill="black" stroke="black" points="845.63,-214.86 847.03,-203.98 847.61,-211.64 850.87,-206.34 850.87,-206.34 850.87,-206.34 847.61,-211.64 854.7,-208.69 845.63,-214.86"/>
</g>
<!-- segregation_system.unit_test -->
<g id="node10" class="node">
<title>segregation_system.unit_test</title>
<polygon fill="none" stroke="black" points="1231.24,-36 1057.74,-36 1057.74,0 1231.24,0 1231.24,-36"/>
<text xml:space="preserve" text-anchor="start" x="1065.74" y="-12.95" font-family="Times,serif" font-size="14.00">segregation_system.unit_test</text>
</g>
<!-- segregation_system.unit_test.conftest -->
<g id="node11" class="node">
<title>segregation_system.unit_test.conftest</title>
<polygon fill="none" stroke="black" points="1469.49,-36 1249.49,-36 1249.49,0 1469.49,0 1469.49,-36"/>
<text xml:space="preserve" text-anchor="start" x="1257.49" y="-12.95" font-family="Times,serif" font-size="14.00">segregation_system.unit_test.conftest</text>
</g>
<!-- segregation_system.unit_test.test_database -->
<g id="node12" class="node">
<title>segregation_system.unit_test.test_database</title>
<polygon fill="none" stroke="black" points="269.11,-180 19.86,-180 19.86,-144 269.11,-144 269.11,-180"/>
<text xml:space="preserve" text-anchor="start" x="27.86" y="-156.95" font-family="Times,serif" font-size="14.00">segregation_system.unit_test.test_database</text>
</g>
<!-- segregation_system.unit_test.test_database&#45;&gt;segregation_system.prepared_session -->
<g id="edge14" class="edge">
<title>segregation_system.unit_test.test_database&#45;&gt;segregation_system.prepared_session</title>
<path fill="none" stroke="black" d="M112.09,-180.36C99.13,-189.16 85.6,-201.16 78.49,-216 71.57,-230.43 68.42,-239.56 78.49,-252 95.13,-272.58 150.85,-285.52 205.26,-293.46"/>
<polygon fill="black" stroke="black" points="214.91,-294.81 204.38,-297.88 211.16,-294.28 205.01,-293.42 205.01,-293.42 205.01,-293.42 211.16,-294.28 205.63,-288.96 214.91,-294.81"/>
</g>
<!-- segregation_system.unit_test.test_database&#45;&gt;segregation_system.segregation_database -->
<g id="edge15" class="edge">
<title>segregation_system.unit_test.test_database&#45;&gt;segregation_system.segregation_database</title>
<path fill="none" stroke="black" d="M160.31,-180.3C167.9,-188.61 177.15,-198.72 185.5,-207.86"/>
<polygon fill="black" stroke="black" points="192.03,-215 181.96,-210.65 189.48,-212.21 185.28,-207.62 185.28,-207.62 185.28,-207.62 189.48,-212.21 188.6,-204.58 192.03,-215"/>
</g>
<!-- segregation_system.unit_test.test_json_handler -->
<g id="node13" class="node">
<title>segregation_system.unit_test.test_json_handler</title>
<polygon fill="none" stroke="black" points="1387.74,-252 1115.24,-252 1115.24,-216 1387.74,-216 1387.74,-252"/>
<text xml:space="preserve" text-anchor="start" x="1123.24" y="-228.95" font-family="Times,serif" font-size="14.00">segregation_system.unit_test.test_json_handler</text>
</g>
<!-- segregation_system.unit_test.test_json_handler&#45;&gt;segregation_system.segregation_json_handler -->
<g id="edge16" class="edge">
<title>segregation_system.unit_test.test_json_handler&#45;&gt;segregation_system.segregation_json_handler</title>
<path fill="none" stroke="black" d="M1210.53,-252.48C1188.63,-261.83 1161.46,-273.43 1138.23,-283.34"/>
<polygon fill="black" stroke="black" points="1129.33,-287.14 1136.76,-279.08 1132.81,-285.66 1138.53,-283.21 1138.53,-283.21 1138.53,-283.21 1132.81,-285.66 1140.29,-287.35 1129.33,-287.14"/>
</g>
<!-- segregation_system.unit_test.test_logic -->
<g id="node14" class="node">
<title>segregation_system.unit_test.test_logic</title>
<polygon fill="none" stroke="black" points="539.36,-108 309.61,-108 309.61,-72 539.36,-72 539.36,-108"/>
<text xml:space="preserve" text-anchor="start" x="317.61" y="-84.95" font-family="Times,serif" font-size="14.00">segregation_system.unit_test.test_logic</text>
</g>
<!-- segregation_system.unit_test.test_logic&#45;&gt;segregation_system.learning_set_splitter -->
<g id="edge17" class="edge">
<title>segregation_system.unit_test.test_logic&#45;&gt;segregation_system.learning_set_splitter</title>
<path fill="none" stroke="black" d="M429.43,-108.3C431.59,-115.85 434.17,-124.88 436.58,-133.32"/>
<polygon fill="black" stroke="black" points="439.27,-142.72 432.19,-134.35 438.23,-139.09 436.52,-133.11 436.52,-133.11 436.52,-133.11 438.23,-139.09 440.85,-131.87 439.27,-142.72"/>
</g>
<!-- segregation_system.unit_test.test_logic&#45;&gt;segregation_system.prepared_session -->
<g id="edge18" class="edge">
<title>segregation_system.unit_test.test_logic&#45;&gt;segregation_system.prepared_session</title>
<path fill="none" stroke="black" d="M309.32,-98.03C193.75,-106.29 30.07,-121.75 10.49,-144 -28.23,-187.99 56.42,-244.64 68.49,-252 109.33,-276.91 159.87,-290.31 205.37,-297.45"/>
<polygon fill="black" stroke="black" points="215,-298.87 204.46,-301.86 211.26,-298.32 205.11,-297.41 205.11,-297.41 205.11,-297.41 211.26,-298.32 205.77,-292.96 215,-298.87"/>
</g>
<!-- segregation_system.unit_test.test_logic&#45;&gt;segregation_system.segregation_configuration -->
<g id="edge19" class="edge">
<title>segregation_system.unit_test.test_logic&#45;&gt;segregation_system.segregation_configuration</title>
<path fill="none" stroke="black" d="M473.15,-108.41C502.03,-118.74 539.35,-132.1 572.49,-144 616.95,-159.96 627.81,-164.65 672.49,-180 704.27,-190.92 739.73,-202.58 769.35,-212.17"/>
<polygon fill="black" stroke="black" points="778.83,-215.23 767.93,-216.44 775.23,-214.07 769.31,-212.16 769.31,-212.16 769.31,-212.16 775.23,-214.07 770.69,-207.88 778.83,-215.23"/>
</g>
<!-- segregation_system.unit_test.test_orchestrator -->
<g id="node15" class="node">
<title>segregation_system.unit_test.test_orchestrator</title>
<polygon fill="none" stroke="black" points="1040.11,-36 772.86,-36 772.86,0 1040.11,0 1040.11,-36"/>
<text xml:space="preserve" text-anchor="start" x="780.86" y="-12.95" font-family="Times,serif" font-size="14.00">segregation_system.unit_test.test_orchestrator</text>
</g>
<!-- segregation_system.unit_test.test_orchestrator&#45;&gt;segregation_system.segregation_configuration -->
<g id="edge20" class="edge">
<title>segregation_system.unit_test.test_orchestrator&#45;&gt;segregation_system.segregation_configuration</title>
<path fill="none" stroke="black" d="M948.28,-36.4C1010.13,-64.6 1114.09,-122.92 1068.49,-180 1056.02,-195.61 1020.04,-206.96 979.92,-215.06"/>
<polygon fill="black" stroke="black" points="970.27,-216.92 979.24,-210.61 973.98,-216.2 980.09,-215.02 980.09,-215.02 980.09,-215.02 973.98,-216.2 980.94,-219.44 970.27,-216.92"/>
</g>
<!-- segregation_system.unit_test.test_orchestrator&#45;&gt;segregation_system.segregation_orchestrator -->
<g id="edge21" class="edge">
<title>segregation_system.unit_test.test_orchestrator&#45;&gt;segregation_system.segregation_orchestrator</title>
<path fill="none" stroke="black" d="M851.79,-36.48C821.63,-46.12 783.99,-58.16 752.35,-68.27"/>
<polygon fill="black" stroke="black" points="743.03,-71.25 751.18,-63.92 746.63,-70.1 752.55,-68.2 752.55,-68.2 752.55,-68.2 746.63,-70.1 753.92,-72.49 743.03,-71.25"/>
</g>
</g>
</svg>
