<?xml version="1.0" encoding="UTF-8" standalone="no"?>
<!DOCTYPE svg PUBLIC "-//W3C//DTD SVG 1.1//EN"
 "http://www.w3.org/Graphics/SVG/1.1/DTD/svg11.dtd">
<!-- Generated by graphviz version 14.1.0 (0)
 -->
<!-- Title: packages_cyberBullyingDetection Pages: 1 -->
<svg width="1031pt" height="260pt"
 viewBox="0.00 0.00 1031.00 260.00" xmlns="http://www.w3.org/2000/svg" xmlns:xlink="http://www.w3.org/1999/xlink">
<g id="graph0" class="graph" transform="scale(1 1) rotate(0) translate(4 256)">
<title>packages_cyberBullyingDetection</title>
<polygon fill="white" stroke="none" points="-4,4 -4,-256 1026.63,-256 1026.63,4 -4,4"/>
<!-- development_system -->
<g id="node1" class="node">
<title>development_system</title>
<polygon fill="none" stroke="black" points="213.13,-36 81.63,-36 81.63,0 213.13,0 213.13,-36"/>
<text xml:space="preserve" text-anchor="start" x="89.63" y="-12.95" font-family="Times,serif" font-size="14.00">development_system</text>
</g>
<!-- development_system.configuration_parameters -->
<g id="node2" class="node">
<title>development_system.configuration_parameters</title>
<polygon fill="none" stroke="black" points="726.76,-180 452.01,-180 452.01,-144 726.76,-144 726.76,-180"/>
<text xml:space="preserve" text-anchor="start" x="460.01" y="-156.95" font-family="Times,serif" font-size="14.00">development_system.configuration_parameters</text>
</g>
<!-- development_system.json_handler_validator -->
<g id="node4" class="node">
<title>development_system.json_handler_validator</title>
<polygon fill="none" stroke="black" points="554.26,-252 294.51,-252 294.51,-216 554.26,-216 554.26,-252"/>
<text xml:space="preserve" text-anchor="start" x="302.51" y="-228.95" font-family="Times,serif" font-size="14.00">development_system.json_handler_validator</text>
</g>
<!-- development_system.configuration_parameters&#45;&gt;development_system.json_handler_validator -->
<g id="edge1" class="edge">
<title>development_system.configuration_parameters&#45;&gt;development_system.json_handler_validator</title>
<path fill="none" stroke="black" d="M548.17,-180.48C526.14,-189.83 498.81,-201.43 475.44,-211.34"/>
<polygon fill="black" stroke="black" points="466.48,-215.14 473.93,-207.09 469.96,-213.67 475.68,-211.24 475.68,-211.24 475.68,-211.24 469.96,-213.67 477.44,-215.38 466.48,-215.14"/>
</g>
<!-- development_system.development_system_orchestrator -->
<g id="node3" class="node">
<title>development_system.development_system_orchestrator</title>
<polygon fill="none" stroke="black" points="553.38,-36 231.38,-36 231.38,0 553.38,0 553.38,-36"/>
<text xml:space="preserve" text-anchor="start" x="239.38" y="-12.95" font-family="Times,serif" font-size="14.00">development_system.development_system_orchestrator</text>
</g>
<!-- development_system.development_system_orchestrator&#45;&gt;development_system.configuration_parameters -->
<g id="edge2" class="edge">
<title>development_system.development_system_orchestrator&#45;&gt;development_system.configuration_parameters</title>
<path fill="none" stroke="black" d="M410.8,-36.42C421.72,-46.76 435.85,-60.13 448.38,-72 465.28,-88 467.41,-94.54 486.38,-108 502.7,-119.57 521.89,-130.15 539.26,-138.77"/>
<polygon fill="black" stroke="black" points="548.14,-143.07 537.18,-142.76 544.73,-141.42 539.14,-138.71 539.14,-138.71 539.14,-138.71 544.73,-141.42 541.1,-134.66 548.14,-143.07"/>
</g>
<!-- development_system.development_system_orchestrator&#45;&gt;development_system.json_handler_validator -->
<g id="edge3" class="edge">
<title>development_system.development_system_orchestrator&#45;&gt;development_system.json_handler_validator</title>
<path fill="none" stroke="black" d="M295.01,-36.44C191.88,-57.23 39.55,-95.34 7.38,-144 -1.44,-157.35 -3.19,-167.99 7.38,-180 25.73,-200.82 169.46,-215.61 283.12,-224.18"/>
<polygon fill="black" stroke="black" points="292.81,-224.9 282.5,-228.65 289.04,-224.62 282.84,-224.16 282.84,-224.16 282.84,-224.16 289.04,-224.62 283.17,-219.68 292.81,-224.9"/>
</g>
<!-- development_system.learning_sets_receiver_and_classifier_sender -->
<g id="node5" class="node">
<title>development_system.learning_sets_receiver_and_classifier_sender</title>
<polygon fill="none" stroke="black" points="396.63,-180 16.13,-180 16.13,-144 396.63,-144 396.63,-180"/>
<text xml:space="preserve" text-anchor="start" x="24.13" y="-156.95" font-family="Times,serif" font-size="14.00">development_system.learning_sets_receiver_and_classifier_sender</text>
</g>
<!-- development_system.development_system_orchestrator&#45;&gt;development_system.learning_sets_receiver_and_classifier_sender -->
<g id="edge4" class="edge">
<title>development_system.development_system_orchestrator&#45;&gt;development_system.learning_sets_receiver_and_classifier_sender</title>
<path fill="none" stroke="black" d="M276.57,-36.46C237.26,-44.94 200.25,-56.66 188.38,-72 174.79,-89.57 181.62,-114.76 190.5,-133.86"/>
<polygon fill="black" stroke="black" points="194.98,-142.67 186.44,-135.8 193.26,-139.3 190.45,-133.76 190.45,-133.76 190.45,-133.76 193.26,-139.3 194.46,-131.72 194.98,-142.67"/>
</g>
<!-- development_system.testing_orchestrator -->
<g id="node6" class="node">
<title>development_system.testing_orchestrator</title>
<polygon fill="none" stroke="black" points="439.63,-108 197.13,-108 197.13,-72 439.63,-72 439.63,-108"/>
<text xml:space="preserve" text-anchor="start" x="205.13" y="-84.95" font-family="Times,serif" font-size="14.00">development_system.testing_orchestrator</text>
</g>
<!-- development_system.development_system_orchestrator&#45;&gt;development_system.testing_orchestrator -->
<g id="edge5" class="edge">
<title>development_system.development_system_orchestrator&#45;&gt;development_system.testing_orchestrator</title>
<path fill="none" stroke="black" d="M374.09,-36.3C365.2,-44.72 354.35,-54.98 344.59,-64.21"/>
<polygon fill="black" stroke="black" points="337.61,-70.82 341.78,-60.67 340.35,-68.22 344.87,-63.94 344.87,-63.94 344.87,-63.94 340.35,-68.22 347.96,-67.21 337.61,-70.82"/>
</g>
<!-- development_system.training_orchestrator -->
<g id="node7" class="node">
<title>development_system.training_orchestrator</title>
<polygon fill="none" stroke="black" points="1022.63,-108 774.13,-108 774.13,-72 1022.63,-72 1022.63,-108"/>
<text xml:space="preserve" text-anchor="start" x="782.13" y="-84.95" font-family="Times,serif" font-size="14.00">development_system.training_orchestrator</text>
</g>
<!-- development_system.development_system_orchestrator&#45;&gt;development_system.training_orchestrator -->
<g id="edge6" class="edge">
<title>development_system.development_system_orchestrator&#45;&gt;development_system.training_orchestrator</title>
<path fill="none" stroke="black" d="M518.76,-36.48C593.12,-46.77 687.13,-59.78 763,-70.27"/>
<polygon fill="black" stroke="black" points="772.85,-71.63 762.32,-74.72 769.1,-71.11 762.94,-70.26 762.94,-70.26 762.94,-70.26 769.1,-71.11 763.56,-65.8 772.85,-71.63"/>
</g>
<!-- development_system.validation_orchestrator -->
<g id="node8" class="node">
<title>development_system.validation_orchestrator</title>
<polygon fill="none" stroke="black" points="755.63,-108 495.13,-108 495.13,-72 755.63,-72 755.63,-108"/>
<text xml:space="preserve" text-anchor="start" x="503.13" y="-84.95" font-family="Times,serif" font-size="14.00">development_system.validation_orchestrator</text>
</g>
<!-- development_system.development_system_orchestrator&#45;&gt;development_system.validation_orchestrator -->
<g id="edge7" class="edge">
<title>development_system.development_system_orchestrator&#45;&gt;development_system.validation_orchestrator</title>
<path fill="none" stroke="black" d="M450.58,-36.48C482.81,-46.17 523.06,-58.26 556.82,-68.4"/>
<polygon fill="black" stroke="black" points="566.36,-71.27 555.49,-72.7 562.74,-70.18 556.78,-68.39 556.78,-68.39 556.78,-68.39 562.74,-70.18 558.08,-64.08 566.36,-71.27"/>
</g>
<!-- development_system.learning_sets_receiver_and_classifier_sender&#45;&gt;development_system.json_handler_validator -->
<g id="edge8" class="edge">
<title>development_system.learning_sets_receiver_and_classifier_sender&#45;&gt;development_system.json_handler_validator</title>
<path fill="none" stroke="black" d="M260.83,-180.48C290.86,-190.12 328.33,-202.16 359.82,-212.27"/>
<polygon fill="black" stroke="black" points="369.09,-215.25 358.2,-216.47 365.49,-214.09 359.57,-212.19 359.57,-212.19 359.57,-212.19 365.49,-214.09 360.95,-207.9 369.09,-215.25"/>
</g>
<!-- development_system.testing_orchestrator&#45;&gt;development_system.configuration_parameters -->
<g id="edge9" class="edge">
<title>development_system.testing_orchestrator&#45;&gt;development_system.configuration_parameters</title>
<path fill="none" stroke="black" d="M386.07,-108.48C424.13,-118.31 471.8,-130.63 511.41,-140.86"/>
<polygon fill="black" stroke="black" points="520.91,-143.31 510.1,-145.17 517.25,-142.37 511.23,-140.81 511.23,-140.81 511.23,-140.81 517.25,-142.37 512.36,-136.46 520.91,-143.31"/>
</g>
<!-- development_system.testing_orchestrator&#45;&gt;development_system.json_handler_validator -->
<g id="edge10" class="edge">
<title>development_system.testing_orchestrator&#45;&gt;development_system.json_handler_validator</title>
<path fill="none" stroke="black" d="M361.37,-108.28C377.44,-116.77 394.43,-128.56 405.38,-144 417.89,-161.63 422.46,-185.84 424,-204.56"/>
<polygon fill="black" stroke="black" points="424.55,-214.45 419.5,-204.72 424.34,-210.67 423.99,-204.47 423.99,-204.47 423.99,-204.47 424.34,-210.67 428.48,-204.21 424.55,-214.45"/>
</g>
<!-- development_system.training_orchestrator&#45;&gt;development_system.configuration_parameters -->
<g id="edge11" class="edge">
<title>development_system.training_orchestrator&#45;&gt;development_system.configuration_parameters</title>
<path fill="none" stroke="black" d="M821.21,-108.48C777.44,-118.4 722.51,-130.84 677.1,-141.13"/>
<polygon fill="black" stroke="black" points="667.57,-143.29 676.33,-136.69 671.26,-142.45 677.32,-141.08 677.32,-141.08 677.32,-141.08 671.26,-142.45 678.32,-145.47 667.57,-143.29"/>
</g>
<!-- development_system.training_orchestrator&#45;&gt;development_system.json_handler_validator -->
<g id="edge12" class="edge">
<title>development_system.training_orchestrator&#45;&gt;development_system.json_handler_validator</title>
<path fill="none" stroke="black" d="M872.81,-108.48C841.73,-128.87 787.01,-162.07 735.38,-180 681.41,-198.75 619.79,-211.01 565.71,-218.97"/>
<polygon fill="black" stroke="black" points="555.85,-220.38 565.11,-214.51 559.59,-219.85 565.75,-218.97 565.75,-218.97 565.75,-218.97 559.59,-219.85 566.39,-223.42 555.85,-220.38"/>
</g>
<!-- development_system.validation_orchestrator&#45;&gt;development_system.configuration_parameters -->
<g id="edge13" class="edge">
<title>development_system.validation_orchestrator&#45;&gt;development_system.configuration_parameters</title>
<path fill="none" stroke="black" d="M616.49,-108.3C612.47,-116.1 607.65,-125.49 603.18,-134.17"/>
<polygon fill="black" stroke="black" points="598.74,-142.81 599.31,-131.86 600.47,-139.45 603.31,-133.92 603.31,-133.92 603.31,-133.92 600.47,-139.45 607.31,-135.98 598.74,-142.81"/>
</g>
</g>
</svg>
