<?xml version="1.0" encoding="UTF-8" standalone="no"?>
<!DOCTYPE svg PUBLIC "-//W3C//DTD SVG 1.1//EN"
 "http://www.w3.org/Graphics/SVG/1.1/DTD/svg11.dtd">
<!-- Generated by graphviz version 14.1.0 (0)
 -->
<!-- Title: packages_cyberBullyingDetection Pages: 1 -->
<svg width="1097pt" height="260pt"
 viewBox="0.00 0.00 1097.00 260.00" xmlns="http://www.w3.org/2000/svg" xmlns:xlink="http://www.w3.org/1999/xlink">
<g id="graph0" class="graph" transform="scale(1 1) rotate(0) translate(4 256)">
<title>packages_cyberBullyingDetection</title>
<polygon fill="white" stroke="none" points="-4,4 -4,-256 1092.57,-256 1092.57,4 -4,4"/>
<!-- production_system -->
<g id="node1" class="node">
<title>production_system</title>
<polygon fill="none" stroke="black" points="560,-36 440.5,-36 440.5,0 560,0 560,-36"/>
<text xml:space="preserve" text-anchor="start" x="448.5" y="-12.95" font-family="Times,serif" font-size="14.00">production_system</text>
</g>
<!-- production_system.classification -->
<g id="node2" class="node">
<title>production_system.classification</title>
<polygon fill="none" stroke="black" points="194.5,-108 0,-108 0,-72 194.5,-72 194.5,-108"/>
<text xml:space="preserve" text-anchor="start" x="8" y="-84.95" font-family="Times,serif" font-size="14.00">production_system.classification</text>
</g>
<!-- production_system.label -->
<g id="node6" class="node">
<title>production_system.label</title>
<polygon fill="none" stroke="black" points="310,-180 160.5,-180 160.5,-144 310,-144 310,-180"/>
<text xml:space="preserve" text-anchor="start" x="168.5" y="-156.95" font-family="Times,serif" font-size="14.00">production_system.label</text>
</g>
<!-- production_system.classification&#45;&gt;production_system.label -->
<g id="edge1" class="edge">
<title>production_system.classification&#45;&gt;production_system.label</title>
<path fill="none" stroke="black" d="M131.72,-108.48C149.8,-117.66 172.15,-128.99 191.45,-138.78"/>
<polygon fill="black" stroke="black" points="200.14,-143.19 189.18,-142.68 196.76,-141.48 191.22,-138.66 191.22,-138.66 191.22,-138.66 196.76,-141.48 193.25,-134.65 200.14,-143.19"/>
</g>
<!-- production_system.configuration_parameters -->
<g id="node3" class="node">
<title>production_system.configuration_parameters</title>
<polygon fill="none" stroke="black" points="896.62,-180 633.88,-180 633.88,-144 896.62,-144 896.62,-180"/>
<text xml:space="preserve" text-anchor="start" x="641.88" y="-156.95" font-family="Times,serif" font-size="14.00">production_system.configuration_parameters</text>
</g>
<!-- production_system.json_validation -->
<g id="node5" class="node">
<title>production_system.json_validation</title>
<polygon fill="none" stroke="black" points="1033.5,-252 827,-252 827,-216 1033.5,-216 1033.5,-252"/>
<text xml:space="preserve" text-anchor="start" x="835" y="-228.95" font-family="Times,serif" font-size="14.00">production_system.json_validation</text>
</g>
<!-- production_system.configuration_parameters&#45;&gt;production_system.json_validation -->
<g id="edge2" class="edge">
<title>production_system.configuration_parameters&#45;&gt;production_system.json_validation</title>
<path fill="none" stroke="black" d="M806.46,-180.48C828.5,-189.83 855.82,-201.43 879.19,-211.34"/>
<polygon fill="black" stroke="black" points="888.16,-215.14 877.19,-215.38 884.68,-213.67 878.95,-211.24 878.95,-211.24 878.95,-211.24 884.68,-213.67 880.71,-207.09 888.16,-215.14"/>
</g>
<!-- production_system.deployment -->
<g id="node4" class="node">
<title>production_system.deployment</title>
<polygon fill="none" stroke="black" points="737.12,-108 549.38,-108 549.38,-72 737.12,-72 737.12,-108"/>
<text xml:space="preserve" text-anchor="start" x="557.38" y="-84.95" font-family="Times,serif" font-size="14.00">production_system.deployment</text>
</g>
<!-- production_system.production_orchestrator -->
<g id="node7" class="node">
<title>production_system.production_orchestrator</title>
<polygon fill="none" stroke="black" points="830.75,-36 577.75,-36 577.75,0 830.75,0 830.75,-36"/>
<text xml:space="preserve" text-anchor="start" x="585.75" y="-12.95" font-family="Times,serif" font-size="14.00">production_system.production_orchestrator</text>
</g>
<!-- production_system.production_orchestrator&#45;&gt;production_system.classification -->
<g id="edge3" class="edge">
<title>production_system.production_orchestrator&#45;&gt;production_system.classification</title>
<path fill="none" stroke="black" d="M577.43,-35.07C574.68,-35.39 571.95,-35.7 569.25,-36 410.31,-53.82 367.19,-51.17 205.64,-71.73"/>
<polygon fill="black" stroke="black" points="196.04,-72.97 205.38,-67.23 199.79,-72.48 205.96,-71.69 205.96,-71.69 205.96,-71.69 199.79,-72.48 206.53,-76.16 196.04,-72.97"/>
</g>
<!-- production_system.production_orchestrator&#45;&gt;production_system.configuration_parameters -->
<g id="edge4" class="edge">
<title>production_system.production_orchestrator&#45;&gt;production_system.configuration_parameters</title>
<path fill="none" stroke="black" d="M721.29,-36.24C730,-45.98 740.05,-58.83 746.25,-72 755.25,-91.11 760.03,-114.54 762.55,-132.56"/>
<polygon fill="black" stroke="black" points="763.75,-142.31 758.06,-132.93 763.28,-138.56 762.53,-132.39 762.53,-132.39 762.53,-132.39 763.28,-138.56 766.99,-131.84 763.75,-142.31"/>
</g>
<!-- production_system.production_orchestrator&#45;&gt;production_system.deployment -->
<g id="edge5" class="edge">
<title>production_system.production_orchestrator&#45;&gt;production_system.deployment</title>
<path fill="none" stroke="black" d="M689.17,-36.3C682.01,-44.53 673.3,-54.52 665.4,-63.58"/>
<polygon fill="black" stroke="black" points="658.96,-70.98 662.13,-60.48 661.44,-68.13 665.53,-63.44 665.53,-63.44 665.53,-63.44 661.44,-68.13 668.92,-66.39 658.96,-70.98"/>
</g>
<!-- production_system.production_orchestrator&#45;&gt;production_system.json_validation -->
<g id="edge6" class="edge">
<title>production_system.production_orchestrator&#45;&gt;production_system.json_validation</title>
<path fill="none" stroke="black" d="M831.08,-19.91C926.03,-23.6 1044.72,-35.66 1076.25,-72 1119.85,-122.25 1034.15,-179.64 976.57,-210.51"/>
<polygon fill="black" stroke="black" points="967.97,-215.03 974.73,-206.4 971.31,-213.27 976.82,-210.38 976.82,-210.38 976.82,-210.38 971.31,-213.27 978.91,-214.36 967.97,-215.03"/>
</g>
<!-- production_system.production_phase_manager -->
<g id="node8" class="node">
<title>production_system.production_phase_manager</title>
<polygon fill="none" stroke="black" points="1066.88,-108 793.62,-108 793.62,-72 1066.88,-72 1066.88,-108"/>
<text xml:space="preserve" text-anchor="start" x="801.62" y="-84.95" font-family="Times,serif" font-size="14.00">production_system.production_phase_manager</text>
</g>
<!-- production_system.production_orchestrator&#45;&gt;production_system.production_phase_manager -->
<g id="edge7" class="edge">
<title>production_system.production_orchestrator&#45;&gt;production_system.production_phase_manager</title>
<path fill="none" stroke="black" d="M760.7,-36.48C791.96,-46.17 831,-58.26 863.74,-68.4"/>
<polygon fill="black" stroke="black" points="872.97,-71.26 862.08,-72.6 869.36,-70.14 863.42,-68.3 863.42,-68.3 863.42,-68.3 869.36,-70.14 864.75,-64 872.97,-71.26"/>
</g>
<!-- production_system.production_system_communication -->
<g id="node9" class="node">
<title>production_system.production_system_communication</title>
<polygon fill="none" stroke="black" points="531.75,-108 212.75,-108 212.75,-72 531.75,-72 531.75,-108"/>
<text xml:space="preserve" text-anchor="start" x="220.75" y="-84.95" font-family="Times,serif" font-size="14.00">production_system.production_system_communication</text>
</g>
<!-- production_system.production_orchestrator&#45;&gt;production_system.production_system_communication -->
<g id="edge8" class="edge">
<title>production_system.production_orchestrator&#45;&gt;production_system.production_system_communication</title>
<path fill="none" stroke="black" d="M621.33,-36.48C574.1,-46.44 514.78,-58.95 465.88,-69.26"/>
<polygon fill="black" stroke="black" points="456.17,-71.31 465.03,-64.84 459.87,-70.53 465.95,-69.24 465.95,-69.24 465.95,-69.24 459.87,-70.53 466.88,-73.65 456.17,-71.31"/>
</g>
<!-- production_system.production_system_communication&#45;&gt;production_system.configuration_parameters -->
<g id="edge9" class="edge">
<title>production_system.production_system_communication&#45;&gt;production_system.configuration_parameters</title>
<path fill="none" stroke="black" d="M470.41,-108.48C527.02,-118.57 598.3,-131.26 656.6,-141.65"/>
<polygon fill="black" stroke="black" points="666.12,-143.34 655.49,-146.02 662.4,-142.68 656.28,-141.59 656.28,-141.59 656.28,-141.59 662.4,-142.68 657.07,-137.16 666.12,-143.34"/>
</g>
<!-- production_system.production_system_communication&#45;&gt;production_system.label -->
<g id="edge10" class="edge">
<title>production_system.production_system_communication&#45;&gt;production_system.label</title>
<path fill="none" stroke="black" d="M338.03,-108.48C320.16,-117.61 298.1,-128.89 279,-138.65"/>
<polygon fill="black" stroke="black" points="270.12,-143.19 276.97,-134.63 273.48,-141.46 279.02,-138.64 279.02,-138.64 279.02,-138.64 273.48,-141.46 281.07,-142.64 270.12,-143.19"/>
</g>
</g>
</svg>
