<?xml version="1.0" encoding="UTF-8" standalone="no"?>
<!DOCTYPE svg PUBLIC "-//W3C//DTD SVG 1.1//EN"
 "http://www.w3.org/Graphics/SVG/1.1/DTD/svg11.dtd">
<!-- Generated by graphviz version 14.1.0 (0)
 -->
<!-- Title: classes_cyberBullyingDetection Pages: 1 -->
<svg width="1347pt" height="683pt"
 viewBox="0.00 0.00 1347.00 683.00" xmlns="http://www.w3.org/2000/svg" xmlns:xlink="http://www.w3.org/1999/xlink">
<g id="graph0" class="graph" transform="scale(1 1) rotate(0) translate(4 679)">
<title>classes_cyberBullyingDetection</title>
<polygon fill="white" stroke="none" points="-4,4 -4,-679 1342.5,-679 1342.5,4 -4,4"/>
<!-- preparation_system.json_handler.JsonHandler -->
<g id="node1" class="node">
<title>preparation_system.json_handler.JsonHandler</title>
<polygon fill="none" stroke="black" points="341.25,-103.5 341.25,-169 649,-169 649,-103.5 341.25,-103.5"/>
<text xml:space="preserve" text-anchor="start" x="461.38" y="-151.7" font-family="Times,serif" font-size="14.00">JsonHandler</text>
<polyline fill="none" stroke="black" points="341.25,-144.5 649,-144.5"/>
<polyline fill="none" stroke="black" points="341.25,-144.5 649,-144.5"/>
<text xml:space="preserve" text-anchor="start" x="349.25" y="-127.2" font-family="Times,serif" font-size="14.00">read_json_file(filepath)</text>
<text xml:space="preserve" text-anchor="start" x="349.25" y="-110.7" font-family="Times,serif" font-size="14.00">validate_json(json_data: dict, schema_path: str): bool</text>
</g>
<!-- preparation_system.preparation_session_channel.PreparationSessionChannel -->
<g id="node2" class="node">
<title>preparation_system.preparation_session_channel.PreparationSessionChannel</title>
<polygon fill="none" stroke="black" points="0,-325.5 0,-465 468.25,-465 468.25,-325.5 0,-325.5"/>
<text xml:space="preserve" text-anchor="start" x="159.88" y="-447.7" font-family="Times,serif" font-size="14.00">PreparationSessionChannel</text>
<polyline fill="none" stroke="black" points="0,-440.5 468.25,-440.5"/>
<text xml:space="preserve" text-anchor="start" x="204.12" y="-423.2" font-family="Times,serif" font-size="14.00">app : Flask</text>
<text xml:space="preserve" text-anchor="start" x="204.12" y="-406.7" font-family="Times,serif" font-size="14.00">host : str</text>
<text xml:space="preserve" text-anchor="start" x="204.12" y="-390.2" font-family="Times,serif" font-size="14.00">port : int</text>
<polyline fill="none" stroke="black" points="0,-383 468.25,-383"/>
<text xml:space="preserve" text-anchor="start" x="8" y="-365.7" font-family="Times,serif" font-size="14.00">get_raw_session(timeout: Optional[float]): Optional[Dict[str, Any]]</text>
<text xml:space="preserve" text-anchor="start" x="8" y="-349.2" font-family="Times,serif" font-size="14.00">send_prepared_session(target_ip: str, target_port: int, prepared_session: Any): bool</text>
<text xml:space="preserve" text-anchor="start" x="8" y="-332.7" font-family="Times,serif" font-size="14.00">start_server()</text>
</g>
<!-- preparation_system.orchestrator.PreparationSystemOrchestrator -->
<g id="node3" class="node">
<title>preparation_system.orchestrator.PreparationSystemOrchestrator</title>
<polygon fill="none" stroke="black" points="482,-518.5 482,-674.5 668.25,-674.5 668.25,-518.5 482,-518.5"/>
<text xml:space="preserve" text-anchor="start" x="490" y="-657.2" font-family="Times,serif" font-size="14.00">PreparationSystemOrchestrator</text>
<polyline fill="none" stroke="black" points="482,-650 668.25,-650"/>
<text xml:space="preserve" text-anchor="start" x="517.75" y="-632.7" font-family="Times,serif" font-size="14.00">corrector</text>
<text xml:space="preserve" text-anchor="start" x="517.75" y="-616.2" font-family="Times,serif" font-size="14.00">creator</text>
<text xml:space="preserve" text-anchor="start" x="517.75" y="-599.7" font-family="Times,serif" font-size="14.00">current_phase : str</text>
<text xml:space="preserve" text-anchor="start" x="517.75" y="-583.2" font-family="Times,serif" font-size="14.00">current_sessions : int</text>
<text xml:space="preserve" text-anchor="start" x="517.75" y="-566.7" font-family="Times,serif" font-size="14.00">json_io</text>
<text xml:space="preserve" text-anchor="start" x="517.75" y="-550.2" font-family="Times,serif" font-size="14.00">parameters</text>
<polyline fill="none" stroke="black" points="482,-543 668.25,-543"/>
<text xml:space="preserve" text-anchor="start" x="527.5" y="-525.7" font-family="Times,serif" font-size="14.00">prepare_session()</text>
</g>
<!-- preparation_system.preparation_session_channel.PreparationSessionChannel&#45;&gt;preparation_system.orchestrator.PreparationSystemOrchestrator -->
<g id="edge2" class="edge">
<title>preparation_system.preparation_session_channel.PreparationSessionChannel&#45;&gt;preparation_system.orchestrator.PreparationSystemOrchestrator</title>
<path fill="none" stroke="black" d="M352.43,-465.38C390.95,-487.88 433.4,-512.69 470.82,-534.55"/>
<polygon fill="black" stroke="black" points="470.6,-534.43 477.8,-534 480.96,-540.48 473.76,-540.91 470.6,-534.43"/>
<text xml:space="preserve" text-anchor="middle" x="424.5" y="-486.7" font-family="Times,serif" font-size="14.00" fill="green">json_io</text>
</g>
<!-- preparation_system.preparation_configuration.PreparationSystemParameters -->
<g id="node4" class="node">
<title>preparation_system.preparation_configuration.PreparationSystemParameters</title>
<polygon fill="none" stroke="black" points="667.38,-0.5 667.38,-272 846.88,-272 846.88,-0.5 667.38,-0.5"/>
<text xml:space="preserve" text-anchor="start" x="675.38" y="-254.7" font-family="Times,serif" font-size="14.00">PreparationSystemParameters</text>
<polyline fill="none" stroke="black" points="667.38,-247.5 846.88,-247.5"/>
<text xml:space="preserve" text-anchor="start" x="696.38" y="-230.2" font-family="Times,serif" font-size="14.00">configuration</text>
<text xml:space="preserve" text-anchor="start" x="696.38" y="-213.7" font-family="Times,serif" font-size="14.00">development_mode</text>
<text xml:space="preserve" text-anchor="start" x="696.38" y="-197.2" font-family="Times,serif" font-size="14.00">development_sessions</text>
<text xml:space="preserve" text-anchor="start" x="696.38" y="-180.7" font-family="Times,serif" font-size="14.00">features</text>
<text xml:space="preserve" text-anchor="start" x="696.38" y="-164.2" font-family="Times,serif" font-size="14.00">ip_classification</text>
<text xml:space="preserve" text-anchor="start" x="696.38" y="-147.7" font-family="Times,serif" font-size="14.00">ip_preparation</text>
<text xml:space="preserve" text-anchor="start" x="696.38" y="-131.2" font-family="Times,serif" font-size="14.00">ip_segregation</text>
<text xml:space="preserve" text-anchor="start" x="696.38" y="-114.7" font-family="Times,serif" font-size="14.00">max_decibel_gain</text>
<text xml:space="preserve" text-anchor="start" x="696.38" y="-98.2" font-family="Times,serif" font-size="14.00">min_decibel_gain</text>
<text xml:space="preserve" text-anchor="start" x="696.38" y="-81.7" font-family="Times,serif" font-size="14.00">port_classification</text>
<text xml:space="preserve" text-anchor="start" x="696.38" y="-65.2" font-family="Times,serif" font-size="14.00">port_preparation</text>
<text xml:space="preserve" text-anchor="start" x="696.38" y="-48.7" font-family="Times,serif" font-size="14.00">port_segregation</text>
<text xml:space="preserve" text-anchor="start" x="696.38" y="-32.2" font-family="Times,serif" font-size="14.00">stopword_list</text>
<polyline fill="none" stroke="black" points="667.38,-25 846.88,-25"/>
<text xml:space="preserve" text-anchor="start" x="720.38" y="-7.7" font-family="Times,serif" font-size="14.00">load_config()</text>
</g>
<!-- preparation_system.preparation_configuration.PreparationSystemParameters&#45;&gt;preparation_system.orchestrator.PreparationSystemOrchestrator -->
<g id="edge1" class="edge">
<title>preparation_system.preparation_configuration.PreparationSystemParameters&#45;&gt;preparation_system.orchestrator.PreparationSystemOrchestrator</title>
<path fill="none" stroke="black" d="M667.05,-265.36C664.13,-267.84 661.15,-270.23 658.12,-272.5 603.28,-313.6 552.48,-268.89 513.12,-325 475.85,-378.14 494.98,-450.26 521.47,-506.67"/>
<polygon fill="black" stroke="black" points="521.38,-506.49 527.6,-510.14 526.63,-517.28 520.41,-513.64 521.38,-506.49"/>
<text xml:space="preserve" text-anchor="middle" x="543.12" y="-390.2" font-family="Times,serif" font-size="14.00" fill="green">parameters</text>
</g>
<!-- preparation_system.prepared_session_creator.PreparedSessionCreator -->
<g id="node6" class="node">
<title>preparation_system.prepared_session_creator.PreparedSessionCreator</title>
<polygon fill="none" stroke="black" points="582.25,-333.75 582.25,-456.75 932,-456.75 932,-333.75 582.25,-333.75"/>
<text xml:space="preserve" text-anchor="start" x="692.25" y="-439.45" font-family="Times,serif" font-size="14.00">PreparedSessionCreator</text>
<polyline fill="none" stroke="black" points="582.25,-432.25 932,-432.25"/>
<text xml:space="preserve" text-anchor="start" x="669" y="-414.95" font-family="Times,serif" font-size="14.00">BOW_VOCABULARY : list</text>
<text xml:space="preserve" text-anchor="start" x="669" y="-398.45" font-family="Times,serif" font-size="14.00">EVENT_MAPPING : dict</text>
<text xml:space="preserve" text-anchor="start" x="669" y="-381.95" font-family="Times,serif" font-size="14.00">MAX_AUDIO_SAMPLES : int</text>
<text xml:space="preserve" text-anchor="start" x="669" y="-365.45" font-family="Times,serif" font-size="14.00">config</text>
<polyline fill="none" stroke="black" points="582.25,-358.25 932,-358.25"/>
<text xml:space="preserve" text-anchor="start" x="590.25" y="-340.95" font-family="Times,serif" font-size="14.00">create_prepared_session(raw_session: Any): PreparedSession</text>
</g>
<!-- preparation_system.preparation_configuration.PreparationSystemParameters&#45;&gt;preparation_system.prepared_session_creator.PreparedSessionCreator -->
<g id="edge5" class="edge">
<title>preparation_system.preparation_configuration.PreparationSystemParameters&#45;&gt;preparation_system.prepared_session_creator.PreparedSessionCreator</title>
<path fill="none" stroke="black" d="M757.12,-272.15C757.12,-288.74 757.12,-305.19 757.12,-320.38"/>
<polygon fill="none" stroke="black" points="757.13,-320.48 761.13,-326.48 757.13,-332.48 753.13,-326.48 757.13,-320.48"/>
<text xml:space="preserve" text-anchor="middle" x="774.38" y="-293.7" font-family="Times,serif" font-size="14.00" fill="green">config</text>
</g>
<!-- preparation_system.session_corrector.SessionCorrector -->
<g id="node7" class="node">
<title>preparation_system.session_corrector.SessionCorrector</title>
<polygon fill="none" stroke="black" points="949.75,-350.25 949.75,-440.25 1338.5,-440.25 1338.5,-350.25 949.75,-350.25"/>
<text xml:space="preserve" text-anchor="start" x="1097.62" y="-422.95" font-family="Times,serif" font-size="14.00">SessionCorrector</text>
<polyline fill="none" stroke="black" points="949.75,-415.75 1338.5,-415.75"/>
<text xml:space="preserve" text-anchor="start" x="1126.88" y="-398.45" font-family="Times,serif" font-size="14.00">config</text>
<polyline fill="none" stroke="black" points="949.75,-391.25 1338.5,-391.25"/>
<text xml:space="preserve" text-anchor="start" x="957.75" y="-373.95" font-family="Times,serif" font-size="14.00">correct_absolute_outliers(session)</text>
<text xml:space="preserve" text-anchor="start" x="957.75" y="-357.45" font-family="Times,serif" font-size="14.00">correct_missing_samples(raw_session: Any, placeholder: Any): Any</text>
</g>
<!-- preparation_system.preparation_configuration.PreparationSystemParameters&#45;&gt;preparation_system.session_corrector.SessionCorrector -->
<g id="edge6" class="edge">
<title>preparation_system.preparation_configuration.PreparationSystemParameters&#45;&gt;preparation_system.session_corrector.SessionCorrector</title>
<path fill="none" stroke="black" d="M847.37,-265.14C850.24,-267.69 853.16,-270.15 856.12,-272.5 894.22,-302.65 940.89,-326.6 985.47,-345"/>
<polygon fill="none" stroke="black" points="985.4,-344.97 992.46,-343.51 996.52,-349.46 989.46,-350.93 985.4,-344.97"/>
<text xml:space="preserve" text-anchor="middle" x="922.58" y="-293.7" font-family="Times,serif" font-size="14.00" fill="green">config</text>
</g>
<!-- preparation_system.prepared_session_creator.PreparedSession -->
<g id="node5" class="node">
<title>preparation_system.prepared_session_creator.PreparedSession</title>
<polygon fill="none" stroke="black" points="865.25,-83 865.25,-189.5 1077,-189.5 1077,-83 865.25,-83"/>
<text xml:space="preserve" text-anchor="start" x="926.5" y="-172.2" font-family="Times,serif" font-size="14.00">PreparedSession</text>
<polyline fill="none" stroke="black" points="865.25,-165 1077,-165"/>
<text xml:space="preserve" text-anchor="start" x="873.25" y="-147.7" font-family="Times,serif" font-size="14.00">features : Dict[str, Union[int, float]]</text>
<text xml:space="preserve" text-anchor="start" x="873.25" y="-131.2" font-family="Times,serif" font-size="14.00">label : str</text>
<text xml:space="preserve" text-anchor="start" x="873.25" y="-114.7" font-family="Times,serif" font-size="14.00">uuid : str</text>
<polyline fill="none" stroke="black" points="865.25,-107.5 1077,-107.5"/>
<text xml:space="preserve" text-anchor="start" x="906.62" y="-90.2" font-family="Times,serif" font-size="14.00">to_dict(): Dict[str, Any]</text>
</g>
<!-- preparation_system.prepared_session_creator.PreparedSessionCreator&#45;&gt;preparation_system.orchestrator.PreparationSystemOrchestrator -->
<g id="edge3" class="edge">
<title>preparation_system.prepared_session_creator.PreparedSessionCreator&#45;&gt;preparation_system.orchestrator.PreparationSystemOrchestrator</title>
<path fill="none" stroke="black" d="M701.53,-457.11C686.71,-473.34 670.41,-491.18 654.58,-508.51"/>
<polygon fill="black" stroke="black" points="654.55,-508.55 653.46,-515.67 646.46,-517.41 647.55,-510.28 654.55,-508.55"/>
<text xml:space="preserve" text-anchor="middle" x="695.77" y="-486.7" font-family="Times,serif" font-size="14.00" fill="green">creator</text>
</g>
<!-- preparation_system.session_corrector.SessionCorrector&#45;&gt;preparation_system.orchestrator.PreparationSystemOrchestrator -->
<g id="edge4" class="edge">
<title>preparation_system.session_corrector.SessionCorrector&#45;&gt;preparation_system.orchestrator.PreparationSystemOrchestrator</title>
<path fill="none" stroke="black" d="M1017.14,-440.72C915.94,-476.15 775.93,-525.18 680.79,-558.5"/>
<polygon fill="black" stroke="black" points="680.72,-558.52 676.38,-564.28 669.39,-562.49 673.74,-556.73 680.72,-558.52"/>
<text xml:space="preserve" text-anchor="middle" x="918.07" y="-486.7" font-family="Times,serif" font-size="14.00" fill="green">corrector</text>
</g>
</g>
</svg>
