<?xml version="1.0" encoding="UTF-8" standalone="no"?>
<!DOCTYPE svg PUBLIC "-//W3C//DTD SVG 1.1//EN"
 "http://www.w3.org/Graphics/SVG/1.1/DTD/svg11.dtd">
<!-- Generated by graphviz version 14.1.0 (0)
 -->
<!-- Title: packages_cyberBullyingDetection Pages: 1 -->
<svg width="645pt" height="260pt"
 viewBox="0.00 0.00 645.00 260.00" xmlns="http://www.w3.org/2000/svg" xmlns:xlink="http://www.w3.org/1999/xlink">
<g id="graph0" class="graph" transform="scale(1 1) rotate(0) translate(4 256)">
<title>packages_cyberBullyingDetection</title>
<polygon fill="white" stroke="none" points="-4,4 -4,-256 640.55,-256 640.55,4 -4,4"/>
<!-- preparation_system -->
<g id="node1" class="node">
<title>preparation_system</title>
<polygon fill="none" stroke="black" points="321.67,-252 199.17,-252 199.17,-216 321.67,-216 321.67,-252"/>
<text xml:space="preserve" text-anchor="start" x="207.17" y="-228.95" font-family="Times,serif" font-size="14.00">preparation_system</text>
</g>
<!-- preparation_system.json_handler -->
<g id="node2" class="node">
<title>preparation_system.json_handler</title>
<polygon fill="none" stroke="black" points="564.42,-252 368.42,-252 368.42,-216 564.42,-216 564.42,-252"/>
<text xml:space="preserve" text-anchor="start" x="376.42" y="-228.95" font-family="Times,serif" font-size="14.00">preparation_system.json_handler</text>
</g>
<!-- preparation_system.orchestrator -->
<g id="node3" class="node">
<title>preparation_system.orchestrator</title>
<polygon fill="none" stroke="black" points="375.8,-36 185.05,-36 185.05,0 375.8,0 375.8,-36"/>
<text xml:space="preserve" text-anchor="start" x="193.05" y="-12.95" font-family="Times,serif" font-size="14.00">preparation_system.orchestrator</text>
</g>
<!-- preparation_system.preparation_configuration -->
<g id="node4" class="node">
<title>preparation_system.preparation_configuration</title>
<polygon fill="none" stroke="black" points="336.05,-180 68.8,-180 68.8,-144 336.05,-144 336.05,-180"/>
<text xml:space="preserve" text-anchor="start" x="76.8" y="-156.95" font-family="Times,serif" font-size="14.00">preparation_system.preparation_configuration</text>
</g>
<!-- preparation_system.orchestrator&#45;&gt;preparation_system.preparation_configuration -->
<g id="edge1" class="edge">
<title>preparation_system.orchestrator&#45;&gt;preparation_system.preparation_configuration</title>
<path fill="none" stroke="black" d="M184.58,-25.08C115.81,-31.68 31.56,-45.12 9.42,-72 -18.38,-105.77 20.97,-127.35 71.23,-140.79"/>
<polygon fill="black" stroke="black" points="80.92,-143.24 70.13,-145.15 77.26,-142.31 71.23,-140.79 71.23,-140.79 71.23,-140.79 77.26,-142.31 72.33,-136.43 80.92,-143.24"/>
</g>
<!-- preparation_system.preparation_session_channel -->
<g id="node5" class="node">
<title>preparation_system.preparation_session_channel</title>
<polygon fill="none" stroke="black" points="636.55,-180 354.3,-180 354.3,-144 636.55,-144 636.55,-180"/>
<text xml:space="preserve" text-anchor="start" x="362.3" y="-156.95" font-family="Times,serif" font-size="14.00">preparation_system.preparation_session_channel</text>
</g>
<!-- preparation_system.orchestrator&#45;&gt;preparation_system.preparation_session_channel -->
<g id="edge2" class="edge">
<title>preparation_system.orchestrator&#45;&gt;preparation_system.preparation_session_channel</title>
<path fill="none" stroke="black" d="M376.14,-27.05C437.83,-34.45 510.03,-48.04 529.42,-72 544.27,-90.34 532.01,-115.88 518.25,-134.89"/>
<polygon fill="black" stroke="black" points="512.23,-142.68 514.78,-132.02 514.54,-139.69 518.34,-134.77 518.34,-134.77 518.34,-134.77 514.54,-139.69 521.9,-137.52 512.23,-142.68"/>
</g>
<!-- preparation_system.prepared_session_creator -->
<g id="node6" class="node">
<title>preparation_system.prepared_session_creator</title>
<polygon fill="none" stroke="black" points="282.17,-108 18.67,-108 18.67,-72 282.17,-72 282.17,-108"/>
<text xml:space="preserve" text-anchor="start" x="26.67" y="-84.95" font-family="Times,serif" font-size="14.00">preparation_system.prepared_session_creator</text>
</g>
<!-- preparation_system.orchestrator&#45;&gt;preparation_system.prepared_session_creator -->
<g id="edge3" class="edge">
<title>preparation_system.orchestrator&#45;&gt;preparation_system.prepared_session_creator</title>
<path fill="none" stroke="black" d="M247.96,-36.48C231.08,-45.57 210.25,-56.78 192.19,-66.51"/>
<polygon fill="black" stroke="black" points="183.55,-71.16 190.22,-62.46 186.88,-69.37 192.36,-66.42 192.36,-66.42 192.36,-66.42 186.88,-69.37 194.49,-70.38 183.55,-71.16"/>
</g>
<!-- preparation_system.session_corrector -->
<g id="node7" class="node">
<title>preparation_system.session_corrector</title>
<polygon fill="none" stroke="black" points="520.8,-108 300.05,-108 300.05,-72 520.8,-72 520.8,-108"/>
<text xml:space="preserve" text-anchor="start" x="308.05" y="-84.95" font-family="Times,serif" font-size="14.00">preparation_system.session_corrector</text>
</g>
<!-- preparation_system.orchestrator&#45;&gt;preparation_system.session_corrector -->
<g id="edge4" class="edge">
<title>preparation_system.orchestrator&#45;&gt;preparation_system.session_corrector</title>
<path fill="none" stroke="black" d="M312.89,-36.48C329.77,-45.57 350.59,-56.78 368.66,-66.51"/>
<polygon fill="black" stroke="black" points="377.3,-71.16 366.36,-70.38 373.97,-69.37 368.49,-66.42 368.49,-66.42 368.49,-66.42 373.97,-69.37 370.63,-62.46 377.3,-71.16"/>
</g>
<!-- preparation_system.preparation_configuration&#45;&gt;preparation_system -->
<g id="edge5" class="edge">
<title>preparation_system.preparation_configuration&#45;&gt;preparation_system</title>
<path fill="none" stroke="black" d="M216.76,-180.3C223.5,-188.44 231.68,-198.31 239.13,-207.3"/>
<polygon fill="black" stroke="black" points="245.48,-214.96 235.63,-210.13 243.06,-212.05 239.09,-207.26 239.09,-207.26 239.09,-207.26 243.06,-212.05 242.56,-204.39 245.48,-214.96"/>
</g>
<!-- preparation_system.preparation_configuration&#45;&gt;preparation_system.json_handler -->
<g id="edge6" class="edge">
<title>preparation_system.preparation_configuration&#45;&gt;preparation_system.json_handler</title>
<path fill="none" stroke="black" d="M268.36,-180.48C305.36,-190.29 351.68,-202.57 390.22,-212.79"/>
<polygon fill="black" stroke="black" points="399.69,-215.31 388.87,-217.09 396.04,-214.34 390.03,-212.74 390.03,-212.74 390.03,-212.74 396.04,-214.34 391.18,-208.39 399.69,-215.31"/>
</g>
<!-- preparation_system.preparation_session_channel&#45;&gt;preparation_system -->
<g id="edge7" class="edge">
<title>preparation_system.preparation_session_channel&#45;&gt;preparation_system</title>
<path fill="none" stroke="black" d="M436.73,-180.48C404.08,-190.21 363.27,-202.36 329.14,-212.53"/>
<polygon fill="black" stroke="black" points="319.95,-215.27 328.24,-208.1 323.57,-214.19 329.53,-212.42 329.53,-212.42 329.53,-212.42 323.57,-214.19 330.81,-216.73 319.95,-215.27"/>
</g>
<!-- preparation_system.preparation_session_channel&#45;&gt;preparation_system.json_handler -->
<g id="edge8" class="edge">
<title>preparation_system.preparation_session_channel&#45;&gt;preparation_system.json_handler</title>
<path fill="none" stroke="black" d="M488.26,-180.3C485.1,-187.93 481.3,-197.08 477.77,-205.6"/>
<polygon fill="black" stroke="black" points="473.98,-214.77 473.65,-203.81 475.42,-211.28 477.8,-205.53 477.8,-205.53 477.8,-205.53 475.42,-211.28 481.96,-207.25 473.98,-214.77"/>
</g>
<!-- preparation_system.prepared_session_creator&#45;&gt;preparation_system.preparation_configuration -->
<g id="edge9" class="edge">
<title>preparation_system.prepared_session_creator&#45;&gt;preparation_system.preparation_configuration</title>
<path fill="none" stroke="black" d="M163.28,-108.3C169.26,-116.36 176.5,-126.11 183.12,-135.02"/>
<polygon fill="black" stroke="black" points="188.99,-142.92 179.42,-137.57 186.74,-139.88 183.03,-134.89 183.03,-134.89 183.03,-134.89 186.74,-139.88 186.64,-132.21 188.99,-142.92"/>
</g>
<!-- preparation_system.session_corrector&#45;&gt;preparation_system.preparation_configuration -->
<g id="edge10" class="edge">
<title>preparation_system.session_corrector&#45;&gt;preparation_system.preparation_configuration</title>
<path fill="none" stroke="black" d="M358.47,-108.48C329.95,-118.08 294.39,-130.05 264.42,-140.14"/>
<polygon fill="black" stroke="black" points="255.23,-143.23 263.27,-135.78 258.81,-142.02 264.71,-140.04 264.71,-140.04 264.71,-140.04 258.81,-142.02 266.14,-144.3 255.23,-143.23"/>
</g>
</g>
</svg>
